<svg xmlns="http://www.w3.org/2000/svg" xmlns:xlink="http://www.w3.org/1999/xlink" width="500" zoomAndPan="magnify" viewBox="0 0 375 374.999991" height="500" preserveAspectRatio="xMidYMid meet" version="1.0"><defs><clipPath id="f69d8c41df"><path d="M 29.0625 0 L 330 0 L 330 256 L 29.0625 256 Z M 29.0625 0 " clip-rule="nonzero"/></clipPath></defs><path fill="#ffffff" d="M 129.164062 274.8125 C 147.816406 237.636719 200.648438 246.589844 211.128906 277.769531 Z M 129.164062 274.8125 " fill-opacity="1" fill-rule="nonzero"/><path fill="#ffffff" d="M 170.308594 250.601562 C 168.800781 237.171875 176.789062 217.296875 183.246094 200.984375 C 184.238281 198.480469 185.214844 196.007812 186.132812 193.640625 C 186.605469 192.417969 187.679688 191.523438 188.96875 191.277344 C 227.574219 183.929688 241.984375 168.050781 241.492188 168.578125 C 263.414062 144.886719 259.855469 130.019531 256.558594 115.378906 C 253.46875 101.652344 250.320312 87.453125 267.160156 69.257812 C 269.03125 67.230469 271.140625 65.167969 273.515625 63.050781 L 276.222656 69.695312 C 244.640625 71.128906 205.921875 96.359375 185.972656 124.949219 C 173.503906 142.816406 185.546875 171.445312 191.851562 185.941406 C 192.964844 188.507812 194.003906 190.871094 194.417969 192.339844 C 194.988281 194.363281 193.8125 196.46875 191.789062 197.039062 C 189.765625 197.609375 187.660156 196.433594 187.089844 194.410156 C 186.855469 193.578125 186.113281 191.847656 184.863281 188.976562 C 179.21875 175.988281 164.320312 142.664062 179.726562 120.589844 C 200.660156 90.597656 241.347656 63.652344 275.878906 62.089844 C 277.488281 62.015625 278.96875 62.964844 279.578125 64.457031 C 280.183594 65.949219 279.789062 67.664062 278.585938 68.734375 C 276.371094 70.707031 274.441406 72.601562 272.75 74.429688 C 258.550781 89.773438 261.054688 100.667969 263.988281 113.703125 C 267.574219 129.625 271.382812 147.488281 247.082031 173.753906 C 246.59375 174.28125 230.769531 191.074219 190.394531 198.757812 L 193.234375 196.390625 C 192.300781 198.800781 191.320312 201.277344 190.328125 203.789062 C 183.511719 221.007812 176.632812 238.6875 177.875 249.753906 C 178.109375 251.84375 176.605469 253.726562 174.515625 253.960938 C 172.425781 254.195312 170.542969 252.691406 170.308594 250.601562 Z M 170.308594 250.601562 " fill-opacity="1" fill-rule="nonzero"/><path fill="#ffffff" d="M 35 313.730469 L 81.113281 279.773438 C 81.421875 279.550781 81.761719 279.375 82.125 279.257812 C 104.511719 271.917969 129.9375 272.003906 158.167969 272.058594 C 162.011719 272.066406 165.871094 272.074219 169.835938 272.066406 C 206.429688 271.972656 221.082031 282.59375 221.621094 291.097656 C 221.628906 291.242188 221.636719 291.382812 221.636719 291.523438 C 221.640625 293.546875 220.679688 295.761719 218.375 296.753906 C 210.054688 300.34375 194.839844 304.808594 172.289062 308.972656 C 170.34375 309.332031 168.476562 308.046875 168.117188 306.101562 C 167.757812 304.15625 169.042969 302.289062 170.988281 301.929688 C 193.324219 297.808594 207.933594 293.460938 215.539062 290.179688 C 214.617188 290.578125 214.472656 291.40625 214.476562 291.542969 L 214.476562 291.539062 C 214.476562 291.542969 214.476562 291.550781 214.476562 291.550781 C 214.394531 290.304688 207.636719 279.132812 169.851562 279.226562 C 165.878906 279.234375 161.988281 279.226562 158.15625 279.21875 C 129.609375 279.164062 105.433594 279.152344 84.351562 286.058594 L 85.359375 285.542969 L 39.246094 319.496094 C 37.65625 320.667969 35.414062 320.328125 34.242188 318.734375 C 33.070312 317.144531 33.410156 314.902344 35 313.730469 Z M 35 313.730469 " fill-opacity="1" fill-rule="nonzero"/><path fill="#ffffff" d="M 69.578125 368.289062 C 81.179688 357.0625 115.574219 336.644531 120.601562 335.015625 C 120.785156 334.957031 121.023438 334.886719 121.292969 334.835938 C 121.695312 334.757812 122.0625 334.742188 122.320312 334.742188 C 124.441406 334.730469 129.773438 335.894531 135.6875 337.160156 C 150.84375 340.398438 173.136719 345.082031 183.46875 343.105469 C 184.566406 342.898438 185.386719 342.632812 185.96875 342.355469 C 264.648438 304.796875 290.925781 282.546875 291.5625 277.121094 C 291.5625 277.117188 291.558594 277.144531 291.558594 277.1875 C 291.554688 276.992188 289.988281 274.144531 281.007812 274.441406 C 275.027344 274.636719 267.625 276.394531 260.59375 280.167969 C 230.757812 296.179688 209.488281 300.117188 209.207031 300.167969 C 207.324219 300.511719 205.488281 299.363281 204.980469 297.515625 C 204.472656 295.671875 205.457031 293.742188 207.25 293.074219 C 247.425781 278.097656 284.742188 255.769531 281.742188 247.722656 C 281.738281 247.707031 281.726562 247.6875 281.722656 247.671875 C 280.804688 245.429688 279.132812 244.132812 272.46875 246.859375 C 266.363281 249.359375 258.554688 254.4375 249.476562 260.367188 C 238.660156 267.433594 226.285156 275.53125 214.167969 280.488281 C 211.863281 281.429688 209.554688 282.265625 207.25 282.964844 C 205.4375 283.511719 203.503906 282.601562 202.773438 280.859375 C 202.039062 279.113281 202.746094 277.09375 204.40625 276.1875 C 232.964844 260.574219 243.707031 249.046875 242.902344 246.164062 C 242.902344 246.164062 242.90625 246.171875 242.90625 246.175781 L 242.910156 246.183594 C 242.90625 246.175781 242.90625 246.175781 242.90625 246.171875 L 242.90625 246.175781 C 242.914062 246.1875 242.875 246.113281 242.691406 245.980469 C 235.816406 241.007812 213.878906 256.800781 197.125 269.621094 C 195.789062 270.640625 194.550781 271.589844 193.390625 272.46875 C 191.765625 273.699219 189.449219 273.375 188.21875 271.75 C 186.988281 270.121094 187.308594 267.804688 188.9375 266.574219 C 190.0625 265.722656 191.308594 264.769531 192.632812 263.753906 C 205.609375 253.824219 234.355469 230.832031 247.023438 239.992188 C 247.917969 240.644531 248.707031 241.457031 249.289062 242.457031 L 249.292969 242.460938 C 249.328125 242.519531 249.355469 242.566406 249.386719 242.625 L 249.390625 242.632812 C 249.660156 243.125 249.867188 243.640625 250.015625 244.175781 C 252.816406 254.1875 233.097656 268.921875 207.949219 282.671875 L 205.105469 275.894531 C 207.160156 275.273438 209.25 274.515625 211.371094 273.648438 C 222.710938 269.011719 234.476562 261.339844 245.4375 254.179688 C 254.261719 248.417969 262.757812 242.851562 269.671875 240.023438 C 276.628906 237.175781 284.984375 236.128906 288.558594 244.875 L 288.558594 244.871094 C 288.589844 244.949219 288.632812 245.0625 288.664062 245.140625 C 294.980469 262.078125 244.300781 287.144531 209.832031 299.996094 L 207.875 292.902344 C 207.597656 292.953125 228.09375 289.226562 257.097656 273.65625 C 265.128906 269.347656 273.648438 267.289062 280.765625 267.054688 C 288.238281 266.808594 298.675781 268.757812 298.945312 276.945312 L 298.945312 276.941406 C 298.957031 277.300781 298.9375 277.640625 298.898438 277.980469 C 297.660156 288.570312 265.335938 312.65625 189.152344 349.019531 C 187.835938 349.648438 186.367188 350.074219 184.855469 350.363281 C 172.660156 352.695312 148.4375 347.4375 134.144531 344.386719 C 127.539062 342.972656 123.433594 342.125 122.363281 342.128906 C 122.332031 342.128906 122.460938 342.132812 122.683594 342.089844 C 122.816406 342.066406 122.894531 342.039062 122.878906 342.042969 C 119.109375 343.265625 85.660156 363.007812 74.714844 373.597656 C 73.246094 375.015625 70.910156 374.976562 69.488281 373.511719 C 68.070312 372.046875 68.109375 369.707031 69.578125 368.289062 Z M 69.578125 368.289062 " fill-opacity="1" fill-rule="nonzero"/><path fill="#ffffff" d="M 176.824219 216.96875 C 176.25 203.152344 168.203125 164.09375 156.109375 156.757812 C 154.667969 155.886719 154.011719 154.144531 154.511719 152.535156 C 162.246094 127.820312 152.832031 115.828125 152.886719 115.902344 L 152.894531 115.910156 C 152.878906 115.890625 152.902344 115.917969 152.902344 115.921875 L 155.761719 113.636719 L 152.910156 115.929688 C 143.324219 104.003906 130.59375 99.292969 116.964844 94.332031 C 108.40625 91.21875 99.414062 87.960938 91.414062 82.558594 L 97.085938 80.023438 C 94.390625 99.804688 107.15625 146.875 140.136719 151.375 C 145.089844 152.050781 150.609375 151.808594 156.742188 150.34375 C 158.707031 149.875 160.679688 151.089844 161.148438 153.054688 C 161.617188 155.023438 160.402344 156.996094 158.4375 157.464844 C 151.503906 159.117188 145.074219 159.433594 139.148438 158.625 C 99.589844 153.230469 87.027344 99.632812 89.835938 79.03125 C 90.007812 77.78125 90.8125 76.703125 91.96875 76.1875 C 93.121094 75.671875 94.460938 75.785156 95.511719 76.496094 C 102.636719 81.308594 110.761719 84.285156 119.464844 87.453125 C 132.894531 92.34375 147.574219 97.609375 158.613281 111.34375 L 155.761719 113.636719 L 158.617188 111.351562 C 158.640625 111.382812 158.636719 111.375 158.667969 111.417969 L 158.675781 111.421875 C 159.761719 112.824219 170.085938 127.261719 161.496094 154.722656 L 159.902344 150.5 C 175.890625 160.195312 183.601562 203.792969 184.136719 216.664062 C 184.222656 218.683594 182.652344 220.390625 180.632812 220.472656 C 178.613281 220.558594 176.910156 218.988281 176.824219 216.96875 Z M 176.824219 216.96875 " fill-opacity="1" fill-rule="nonzero"/><path fill="#ffffff" d="M 175.789062 222.453125 C 171.285156 204.453125 163.527344 180.648438 151.472656 183.664062 C 151.289062 183.710938 151.105469 183.761719 150.914062 183.820312 C 146.015625 185.332031 146.535156 187.777344 146.621094 186.546875 C 146.601562 186.816406 146.550781 187.085938 146.476562 187.34375 C 131.179688 238.476562 83.628906 224.675781 83.183594 224.546875 L 83.171875 224.542969 C 83.171875 224.542969 83.1875 224.546875 83.191406 224.546875 C 81.832031 224.15625 80.820312 223.023438 80.585938 221.632812 C 80.347656 220.238281 80.925781 218.835938 82.074219 218.015625 C 91.675781 211.171875 92.578125 205.757812 93.59375 200.414062 C 94.550781 195.347656 95.617188 189.671875 102.917969 184.464844 C 103.125 184.316406 103.34375 184.167969 103.5625 184.019531 C 120.253906 172.734375 139.480469 175.53125 145.402344 184.292969 C 145.617188 184.613281 145.820312 184.945312 146 185.289062 C 146.949219 187.085938 146.261719 189.3125 144.464844 190.261719 C 142.667969 191.210938 140.441406 190.523438 139.492188 188.726562 C 139.441406 188.632812 139.378906 188.523438 139.304688 188.414062 L 139.304688 188.417969 C 136.640625 184.476562 122.671875 179.984375 107.683594 190.117188 C 107.519531 190.230469 107.34375 190.351562 107.191406 190.460938 C 102.324219 193.929688 101.707031 197.136719 100.824219 201.78125 C 99.621094 208.144531 98.078125 215.648438 86.351562 224.011719 L 85.234375 217.476562 C 85.25 217.480469 85.25 217.480469 85.269531 217.488281 L 85.257812 217.484375 C 86.097656 217.730469 126.242188 229.289062 139.421875 185.234375 L 139.277344 186.035156 C 139.363281 184.800781 140.429688 179.347656 148.746094 176.785156 C 149.0625 176.6875 149.371094 176.601562 149.683594 176.523438 C 170.746094 171.253906 179.707031 207.789062 182.929688 220.667969 C 183.421875 222.636719 182.222656 224.636719 180.25 225.128906 C 178.277344 225.625 176.28125 224.425781 175.789062 222.453125 Z M 175.789062 222.453125 " fill-opacity="1" fill-rule="nonzero"/><path fill="#ffffff" d="M 203.078125 159.648438 C 205.003906 156.171875 207.945312 149.152344 211.402344 142.359375 C 214.855469 135.570312 218.050781 128.492188 221.5625 121.089844 C 225.074219 113.6875 229.238281 106.039062 233.25 100.632812 C 237.261719 95.222656 237.261719 95.222656 234.355469 98.640625 C 234.355469 98.640625 227.839844 104.910156 221.800781 111.28125 C 215.761719 117.648438 210.75 124.523438 207.5 132.085938 C 204.253906 139.648438 202.5 147.511719 202.628906 151.597656 C 202.050781 159.457031 203.78125 155.878906 203.078125 159.648438 Z M 203.078125 159.648438 " fill-opacity="1" fill-rule="nonzero"/><path fill="#ffffff" d="M 208.683594 141.0625 C 209.15625 140.761719 210.070312 140.0625 211.164062 139.386719 C 212.253906 138.710938 213.523438 138.058594 214.960938 137.414062 C 216.398438 136.765625 218.007812 136.121094 219.714844 135.511719 C 221.417969 134.902344 222.597656 133.140625 224.242188 132.15625 C 225.890625 131.171875 227.636719 130.195312 229.496094 129.257812 C 231.351562 128.316406 233.375 127.632812 234.960938 127.238281 C 236.550781 126.847656 236.550781 126.847656 235.492188 127.109375 C 235.492188 127.109375 233.375 127.632812 231.273438 127.984375 C 229.171875 128.335938 227.109375 128.660156 225.117188 129.074219 C 223.121094 129.488281 221.199219 129.996094 219.273438 130.445312 C 217.347656 130.894531 215.734375 132.050781 214.316406 133.199219 C 212.898438 134.347656 211.671875 135.480469 210.648438 136.59375 C 209.621094 137.707031 208.785156 138.789062 208.496094 139.382812 C 207.863281 140.417969 209.027344 140.625 208.683594 141.0625 Z M 208.683594 141.0625 " fill-opacity="1" fill-rule="nonzero"/><path fill="#ffffff" d="M 141.867188 132.1875 C 141.4375 131.703125 140.476562 130.863281 139.515625 129.964844 C 138.558594 129.066406 137.601562 128.109375 136.636719 127.101562 C 135.667969 126.097656 134.699219 125.035156 134.015625 124.304688 C 133.332031 123.570312 132.652344 122.78125 131.363281 121.238281 C 130.074219 119.695312 127.300781 118.390625 124.128906 116.167969 C 120.957031 113.945312 116.988281 111.234375 113.988281 108.570312 C 110.988281 105.90625 110.988281 105.90625 112.917969 107.753906 C 112.917969 107.753906 116.570312 111.671875 119.300781 115.246094 C 122.03125 118.816406 124.242188 121.628906 125.949219 123.671875 C 127.652344 125.71875 129.101562 126.734375 129.839844 127.210938 C 130.578125 127.691406 131.84375 128.5 133.136719 129.253906 C 134.433594 130.011719 135.710938 130.695312 136.976562 131.304688 C 138.238281 131.914062 139.472656 132.457031 140.136719 132.617188 C 141.34375 133.09375 141.328125 131.875 141.867188 132.1875 Z M 141.867188 132.1875 " fill-opacity="1" fill-rule="nonzero"/><path fill="#ffffff" d="M 124.8125 191.851562 C 124.15625 191.882812 122.699219 192.414062 120.914062 193.371094 C 119.128906 194.332031 117.027344 195.734375 115.40625 198.320312 C 113.785156 200.910156 111.867188 203.863281 109.996094 206.035156 C 108.128906 208.207031 108.128906 208.207031 109.386719 206.769531 C 109.386719 206.769531 111.9375 203.925781 114.570312 201.902344 C 117.199219 199.878906 119.703125 198.5625 121.109375 196.878906 C 122.515625 195.195312 123.703125 194.015625 124.164062 193.519531 C 125.15625 192.839844 124.277344 192.035156 124.8125 191.851562 Z M 124.8125 191.851562 " fill-opacity="1" fill-rule="nonzero"/><g clip-path="url(#f69d8c41df)"><path fill="#ffffff" d="M 70.410156 253.984375 L 62.125 244.492188 C 62.054688 244.40625 61.984375 244.320312 61.917969 244.230469 L 54.480469 234.0625 C 54.414062 233.972656 54.351562 233.878906 54.292969 233.785156 L 47.753906 223.011719 C 47.699219 222.917969 47.644531 222.820312 47.59375 222.722656 L 42.007812 211.429688 C 41.957031 211.328125 41.914062 211.226562 41.871094 211.125 L 37.273438 199.390625 C 37.234375 199.289062 37.199219 199.183594 37.167969 199.078125 L 33.59375 186.992188 C 33.5625 186.886719 33.535156 186.78125 33.511719 186.671875 L 30.992188 174.324219 C 30.96875 174.214844 30.953125 174.105469 30.9375 173.996094 L 29.488281 161.480469 C 29.476562 161.371094 29.46875 161.257812 29.464844 161.148438 L 29.09375 148.554688 C 29.089844 148.441406 29.09375 148.332031 29.097656 148.21875 L 29.8125 135.640625 C 29.816406 135.53125 29.828125 135.417969 29.84375 135.308594 L 31.636719 122.835938 C 31.652344 122.726562 31.671875 122.617188 31.699219 122.507812 L 34.554688 110.238281 C 34.578125 110.128906 34.609375 110.023438 34.644531 109.917969 L 38.542969 97.933594 C 38.578125 97.828125 38.617188 97.726562 38.660156 97.625 L 43.578125 86.023438 C 43.621094 85.917969 43.667969 85.820312 43.71875 85.722656 L 49.613281 74.585938 C 49.667969 74.484375 49.722656 74.390625 49.78125 74.296875 L 56.613281 63.707031 C 56.671875 63.613281 56.734375 63.523438 56.804688 63.4375 L 64.519531 53.472656 C 64.585938 53.386719 64.65625 53.300781 64.734375 53.21875 L 73.273438 43.957031 C 73.351562 43.875 73.429688 43.796875 73.511719 43.722656 L 82.816406 35.226562 C 82.898438 35.152344 82.984375 35.078125 83.070312 35.011719 L 93.074219 27.347656 C 93.160156 27.28125 93.253906 27.214844 93.347656 27.15625 L 103.96875 20.378906 C 104.0625 20.320312 104.160156 20.265625 104.257812 20.214844 L 115.421875 14.375 C 115.519531 14.324219 115.621094 14.277344 115.722656 14.234375 L 127.351562 9.375 C 127.453125 9.332031 127.558594 9.292969 127.664062 9.261719 L 139.664062 5.421875 C 139.769531 5.386719 139.875 5.355469 139.984375 5.332031 L 152.136719 2.5625 C 152.246094 2.535156 152.351562 2.515625 152.460938 2.5 L 164.808594 0.773438 C 164.917969 0.757812 165.027344 0.75 165.136719 0.742188 L 177.585938 0.0703125 C 177.695312 0.0625 177.804688 0.0625 177.914062 0.0664062 L 190.375 0.457031 C 190.484375 0.457031 190.59375 0.464844 190.703125 0.480469 L 203.085938 1.925781 C 203.195312 1.9375 203.304688 1.957031 203.410156 1.976562 L 215.625 4.472656 C 215.734375 4.496094 215.839844 4.519531 215.945312 4.550781 L 227.90625 8.074219 C 228.011719 8.105469 228.113281 8.140625 228.214844 8.183594 L 239.832031 12.710938 C 239.933594 12.75 240.035156 12.792969 240.132812 12.84375 L 251.324219 18.339844 C 251.421875 18.390625 251.519531 18.441406 251.613281 18.5 L 262.292969 24.929688 C 262.386719 24.984375 262.476562 25.046875 262.566406 25.109375 L 272.664062 32.425781 C 272.75 32.488281 272.835938 32.558594 272.921875 32.628906 L 282.359375 40.777344 C 282.441406 40.847656 282.519531 40.921875 282.597656 41 L 291.308594 49.921875 C 291.386719 50 291.457031 50.082031 291.527344 50.167969 L 299.449219 59.792969 C 299.519531 59.878906 299.585938 59.964844 299.648438 60.054688 L 306.71875 70.324219 C 306.78125 70.414062 306.839844 70.507812 306.894531 70.601562 L 313.070312 81.433594 C 313.125 81.527344 313.175781 81.625 313.222656 81.726562 L 318.453125 93.039062 C 318.5 93.140625 318.542969 93.242188 318.578125 93.34375 L 322.828125 105.066406 C 322.867188 105.167969 322.898438 105.273438 322.929688 105.378906 L 326.167969 117.417969 C 326.195312 117.523438 326.21875 117.632812 326.238281 117.738281 L 328.445312 130.007812 C 328.464844 130.117188 328.476562 130.226562 328.488281 130.335938 L 329.640625 142.75 C 329.652344 142.859375 329.65625 142.96875 329.65625 143.078125 L 329.75 155.546875 C 329.75 155.65625 329.746094 155.765625 329.738281 155.875 L 328.773438 168.304688 C 328.765625 168.414062 328.75 168.523438 328.734375 168.632812 L 326.710938 180.933594 C 326.367188 183.042969 324.375 184.472656 322.261719 184.128906 C 320.152344 183.78125 318.722656 181.789062 319.070312 179.679688 L 321.089844 167.375 L 321.050781 167.703125 L 322.015625 155.273438 L 322.003906 155.601562 L 321.910156 143.136719 L 321.929688 143.464844 L 320.777344 131.050781 L 320.820312 131.378906 L 318.617188 119.109375 L 318.6875 119.429688 L 315.449219 107.390625 L 315.546875 107.707031 L 311.296875 95.984375 L 311.421875 96.292969 L 306.191406 84.976562 L 306.34375 85.269531 L 300.167969 74.4375 L 300.34375 74.71875 L 293.269531 64.453125 L 293.46875 64.714844 L 285.546875 55.085938 L 285.765625 55.332031 L 277.054688 46.414062 L 277.296875 46.640625 L 267.859375 38.492188 L 268.117188 38.695312 L 258.023438 31.382812 L 258.296875 31.5625 L 247.617188 25.132812 L 247.90625 25.292969 L 236.71875 19.792969 L 237.019531 19.925781 L 225.402344 15.398438 L 225.714844 15.503906 L 213.757812 11.980469 L 214.078125 12.0625 L 201.863281 9.566406 L 202.1875 9.621094 L 189.804688 8.171875 L 190.132812 8.195312 L 177.671875 7.808594 L 178.003906 7.804688 L 165.554688 8.476562 L 165.882812 8.445312 L 153.535156 10.171875 L 153.859375 10.113281 L 141.703125 12.882812 L 142.023438 12.796875 L 130.023438 16.636719 L 130.335938 16.523438 L 118.710938 21.378906 L 119.011719 21.238281 L 107.847656 27.078125 L 108.132812 26.910156 L 97.511719 33.6875 L 97.785156 33.496094 L 87.78125 41.160156 L 88.039062 40.945312 L 78.734375 49.441406 L 78.96875 49.207031 L 70.425781 58.46875 L 70.640625 58.214844 L 62.929688 68.179688 L 63.121094 67.90625 L 56.292969 78.496094 L 56.460938 78.207031 L 50.566406 89.34375 L 50.707031 89.042969 L 45.792969 100.644531 L 45.910156 100.332031 L 42.007812 112.3125 L 42.097656 111.992188 L 39.242188 124.265625 L 39.304688 123.9375 L 37.511719 136.410156 L 37.546875 136.078125 L 36.832031 148.660156 L 36.835938 148.324219 L 37.207031 160.921875 L 37.183594 160.589844 L 38.632812 173.105469 L 38.582031 172.777344 L 41.101562 185.121094 L 41.019531 184.796875 L 44.59375 196.882812 L 44.484375 196.566406 L 49.082031 208.296875 L 48.949219 207.992188 L 54.535156 219.285156 L 54.375 218.992188 L 60.914062 229.765625 L 60.730469 229.488281 L 68.167969 239.65625 L 67.960938 239.398438 L 76.246094 248.890625 C 77.652344 250.5 77.488281 252.949219 75.875 254.355469 C 74.265625 255.761719 71.820312 255.59375 70.410156 253.984375 Z M 70.410156 253.984375 " fill-opacity="1" fill-rule="nonzero"/></g><path fill="#ffffff" d="M 310.488281 168.894531 C 312.128906 171.925781 321.945312 182.929688 324.074219 184.285156 C 324.132812 184.324219 323.925781 184.175781 323.535156 184.058594 C 322.566406 183.757812 321.863281 184.023438 322.109375 183.957031 C 324.695312 183.277344 336.714844 175.265625 338.402344 173.378906 C 338.464844 173.3125 338.257812 173.515625 338.0625 173.921875 C 338.996094 171.996094 341.3125 171.195312 343.238281 172.128906 C 345.160156 173.066406 345.964844 175.382812 345.027344 177.304688 C 344.742188 177.890625 344.367188 178.332031 344.179688 178.539062 C 341.71875 181.292969 328.453125 190.300781 324.078125 191.449219 C 323.710938 191.546875 322.542969 191.851562 321.269531 191.464844 C 320.660156 191.277344 320.179688 190.988281 319.910156 190.816406 C 316.460938 188.617188 305.816406 176.527344 303.679688 172.589844 C 302.660156 170.710938 303.355469 168.359375 305.238281 167.339844 C 307.117188 166.320312 309.46875 167.015625 310.488281 168.894531 Z M 310.488281 168.894531 " fill-opacity="1" fill-rule="nonzero"/></svg>