<svg width="24" height="24" viewBox="0 0 24 24" fill="none" xmlns="http://www.w3.org/2000/svg">
<g clip-path="url(#clip0_9_1054)">
<path d="M13.06 3.28304C12.7788 3.00214 12.3975 2.84436 12 2.84436C11.6025 2.84436 11.2213 3.00214 10.94 3.28304L5.281 8.93904C4.99961 9.22044 4.84152 9.60209 4.84152 10C4.84152 10.398 4.99961 10.7796 5.281 11.061C5.5624 11.3424 5.94405 11.5005 6.342 11.5005C6.73996 11.5005 7.12161 11.3424 7.403 11.061L10.5 7.96504V19.5C10.5 19.8979 10.658 20.2794 10.9393 20.5607C11.2206 20.842 11.6022 21 12 21C12.3978 21 12.7794 20.842 13.0607 20.5607C13.342 20.2794 13.5 19.8979 13.5 19.5V7.96504L16.596 11.061C16.7353 11.2004 16.9007 11.3109 17.0828 11.3863C17.2648 11.4617 17.46 11.5005 17.657 11.5005C17.854 11.5005 18.0492 11.4617 18.2312 11.3863C18.4133 11.3109 18.5787 11.2004 18.718 11.061C18.8573 10.9217 18.9679 10.7563 19.0433 10.5742C19.1187 10.3922 19.1575 10.1971 19.1575 10C19.1575 9.80299 19.1187 9.60788 19.0433 9.42583C18.9679 9.24378 18.8573 9.07837 18.718 8.93904L13.06 3.28304Z" fill="black"/>
</g>
<defs>
<clipPath id="clip0_9_1054">
<rect width="24" height="24" fill="white"/>
</clipPath>
</defs>
</svg>
