<svg xmlns="http://www.w3.org/2000/svg" xmlns:xlink="http://www.w3.org/1999/xlink" width="500" zoomAndPan="magnify" viewBox="0 0 375 374.999991" height="500" preserveAspectRatio="xMidYMid meet" version="1.0"><path fill="#ffffff" d="M 263.65625 375 C 233.824219 375 206.652344 358.835938 187.144531 329.488281 C 168.484375 301.417969 158.207031 263.488281 158.207031 222.6875 C 158.207031 202.097656 177.109375 185.351562 193.785156 170.574219 C 204.265625 161.289062 214.164062 152.515625 218.097656 144.296875 C 224.601562 130.714844 226.824219 118.253906 228.785156 107.261719 C 230.601562 97.070312 232.171875 88.269531 236.835938 81.621094 C 242.21875 73.945312 250.742188 70.371094 263.65625 70.371094 C 293.757812 70.371094 321.925781 86.472656 342.972656 115.703125 C 363.601562 144.351562 374.964844 182.347656 374.964844 222.6875 C 374.964844 263.023438 363.601562 301.019531 342.972656 329.667969 C 321.925781 358.902344 293.757812 375 263.65625 375 Z M 263.65625 82.089844 C 245.175781 82.089844 243.753906 90.058594 240.320312 109.316406 C 238.332031 120.464844 235.855469 134.339844 228.664062 149.355469 C 223.707031 159.714844 212.949219 169.25 201.554688 179.34375 C 186.003906 193.121094 169.925781 207.371094 169.925781 222.6875 C 169.925781 261.207031 179.503906 296.832031 196.902344 323.003906 C 214.167969 348.976562 237.875 363.285156 263.65625 363.285156 C 318.570312 363.285156 363.246094 300.210938 363.246094 222.6875 C 363.246094 145.160156 318.570312 82.089844 263.65625 82.089844 Z M 263.65625 82.089844 " fill-opacity="1" fill-rule="nonzero"/><path fill="#ffffff" d="M 292.949219 169.960938 C 276.796875 169.960938 263.65625 156.820312 263.65625 140.671875 C 263.65625 124.519531 276.796875 111.378906 292.949219 111.378906 C 309.097656 111.378906 322.238281 124.519531 322.238281 140.671875 C 322.238281 156.820312 309.097656 169.960938 292.949219 169.960938 Z M 292.949219 123.097656 C 283.257812 123.097656 275.375 130.980469 275.375 140.671875 C 275.375 150.359375 283.257812 158.246094 292.949219 158.246094 C 302.636719 158.246094 310.523438 150.359375 310.523438 140.671875 C 310.523438 130.980469 302.636719 123.097656 292.949219 123.097656 Z M 292.949219 123.097656 " fill-opacity="1" fill-rule="nonzero"/><path fill="#ffffff" d="M 322.238281 240.261719 C 306.089844 240.261719 292.949219 227.121094 292.949219 210.96875 C 292.949219 194.820312 306.089844 181.679688 322.238281 181.679688 C 338.390625 181.679688 351.53125 194.820312 351.53125 210.96875 C 351.53125 227.121094 338.390625 240.261719 322.238281 240.261719 Z M 322.238281 193.394531 C 312.550781 193.394531 304.664062 201.277344 304.664062 210.96875 C 304.664062 220.660156 312.550781 228.542969 322.238281 228.542969 C 331.929688 228.542969 339.8125 220.660156 339.8125 210.96875 C 339.8125 201.277344 331.929688 193.394531 322.238281 193.394531 Z M 322.238281 193.394531 " fill-opacity="1" fill-rule="nonzero"/><path fill="#ffffff" d="M 304.664062 310.558594 C 288.511719 310.558594 275.375 297.417969 275.375 281.269531 C 275.375 265.117188 288.511719 251.976562 304.664062 251.976562 C 320.816406 251.976562 333.957031 265.117188 333.957031 281.269531 C 333.957031 297.417969 320.816406 310.558594 304.664062 310.558594 Z M 304.664062 263.695312 C 294.972656 263.695312 287.089844 271.578125 287.089844 281.269531 C 287.089844 290.957031 294.972656 298.84375 304.664062 298.84375 C 314.355469 298.84375 322.238281 290.957031 322.238281 281.269531 C 322.238281 271.578125 314.355469 263.695312 304.664062 263.695312 Z M 304.664062 263.695312 " fill-opacity="1" fill-rule="nonzero"/><path fill="#ffffff" d="M 246.082031 345.707031 C 229.929688 345.707031 216.792969 332.570312 216.792969 316.417969 C 216.792969 300.265625 229.929688 287.125 246.082031 287.125 C 262.234375 287.125 275.375 300.265625 275.375 316.417969 C 275.375 332.570312 262.234375 345.707031 246.082031 345.707031 Z M 246.082031 298.84375 C 236.390625 298.84375 228.507812 306.726562 228.507812 316.417969 C 228.507812 326.109375 236.390625 333.992188 246.082031 333.992188 C 255.773438 333.992188 263.65625 326.109375 263.65625 316.417969 C 263.65625 306.726562 255.773438 298.84375 246.082031 298.84375 Z M 246.082031 298.84375 " fill-opacity="1" fill-rule="nonzero"/><path fill="#ffffff" d="M 123.058594 375.035156 C 113.285156 375.035156 105.4375 367.382812 105.195312 357.609375 L 99.628906 123.269531 C 99.550781 120.035156 102.113281 117.351562 105.347656 117.273438 C 108.601562 117.183594 111.265625 119.757812 111.34375 122.992188 L 116.90625 357.324219 C 116.992188 360.683594 119.695312 363.320312 123.058594 363.320312 C 126.425781 363.320312 129.128906 360.683594 129.210938 357.316406 L 134.777344 122.992188 C 134.855469 119.757812 137.519531 117.195312 140.773438 117.273438 C 144.007812 117.351562 146.570312 120.035156 146.492188 123.269531 L 140.925781 357.601562 C 140.679688 367.382812 132.832031 375.035156 123.058594 375.035156 Z M 123.058594 375.035156 " fill-opacity="1" fill-rule="nonzero"/><path fill="#ffffff" d="M 140.632812 128.953125 L 105.484375 128.953125 C 103.4375 128.953125 101.539062 127.886719 100.476562 126.136719 C 92.726562 113.378906 87.910156 91.945312 87.910156 70.210938 C 87.910156 60.589844 93.929688 52.226562 99.238281 44.851562 C 102.277344 40.632812 105.144531 36.648438 106.070312 33.523438 C 107.773438 27.773438 108.398438 22.738281 108.953125 18.296875 C 109.964844 10.144531 111.222656 0.00390625 123.058594 0.00390625 C 133.316406 0.00390625 142.566406 7.910156 149.105469 22.273438 C 154.972656 35.171875 158.207031 52.203125 158.207031 70.230469 C 158.207031 91.953125 153.394531 113.378906 145.640625 126.136719 C 144.578125 127.886719 142.679688 128.953125 140.632812 128.953125 Z M 108.921875 117.238281 L 137.195312 117.238281 C 142.972656 105.945312 146.492188 88.34375 146.492188 70.230469 C 146.492188 53.839844 143.632812 38.535156 138.441406 27.125 C 134.046875 17.476562 128.296875 11.71875 123.058594 11.71875 C 122.546875 11.71875 122.253906 11.769531 122.117188 11.804688 C 121.433594 12.847656 120.941406 16.816406 120.578125 19.738281 C 120 24.390625 119.28125 30.179688 117.304688 36.851562 C 115.8125 41.882812 112.382812 46.648438 108.746094 51.695312 C 104.265625 57.925781 99.625 64.367188 99.625 70.210938 C 99.625 88.335938 103.148438 105.945312 108.921875 117.238281 Z M 108.921875 117.238281 " fill-opacity="1" fill-rule="nonzero"/><path fill="#ffffff" d="M 136.242188 304.703125 L 109.878906 304.703125 C 106.644531 304.703125 104.019531 302.078125 104.019531 298.84375 C 104.019531 295.609375 106.644531 292.984375 109.878906 292.984375 L 136.242188 292.984375 C 139.476562 292.984375 142.097656 295.609375 142.097656 298.84375 C 142.097656 302.078125 139.476562 304.703125 136.242188 304.703125 Z M 136.242188 304.703125 " fill-opacity="1" fill-rule="nonzero"/><path fill="#ffffff" d="M 135.507812 333.992188 L 110.609375 333.992188 C 107.375 333.992188 104.753906 331.371094 104.753906 328.132812 C 104.753906 324.898438 107.375 322.277344 110.609375 322.277344 L 135.507812 322.277344 C 138.742188 322.277344 141.367188 324.898438 141.367188 328.132812 C 141.367188 331.371094 138.742188 333.992188 135.507812 333.992188 Z M 135.507812 333.992188 " fill-opacity="1" fill-rule="nonzero"/><path fill="#ffffff" d="M 23.46875 375.035156 C 10.546875 375.035156 0.0351562 364.523438 0.0351562 351.601562 L 0.0351562 76.265625 C 0.0351562 75.5625 0.164062 74.867188 0.410156 74.210938 L 17.984375 27.34375 C 18.839844 25.058594 21.027344 23.542969 23.46875 23.542969 C 25.910156 23.542969 28.097656 25.058594 28.953125 27.34375 L 46.53125 74.210938 C 46.777344 74.867188 46.902344 75.5625 46.902344 76.265625 L 46.902344 351.601562 C 46.902344 364.523438 36.390625 375.035156 23.46875 375.035156 Z M 11.753906 77.328125 L 11.753906 351.601562 C 11.753906 358.0625 17.007812 363.320312 23.46875 363.320312 C 29.929688 363.320312 35.1875 358.0625 35.1875 351.601562 L 35.1875 77.328125 L 23.46875 46.085938 Z M 11.753906 77.328125 " fill-opacity="1" fill-rule="nonzero"/><path fill="#ffffff" d="M 41.042969 339.851562 L 5.894531 339.851562 C 2.660156 339.851562 0.0351562 337.226562 0.0351562 333.992188 C 0.0351562 330.757812 2.660156 328.132812 5.894531 328.132812 L 41.042969 328.132812 C 44.28125 328.132812 46.902344 330.757812 46.902344 333.992188 C 46.902344 337.226562 44.28125 339.851562 41.042969 339.851562 Z M 41.042969 339.851562 " fill-opacity="1" fill-rule="nonzero"/><path fill="#ffffff" d="M 41.042969 82.089844 L 5.894531 82.089844 C 2.660156 82.089844 0.0351562 79.464844 0.0351562 76.230469 C 0.0351562 72.996094 2.660156 70.371094 5.894531 70.371094 L 41.042969 70.371094 C 44.28125 70.371094 46.902344 72.996094 46.902344 76.230469 C 46.902344 79.464844 44.28125 82.089844 41.042969 82.089844 Z M 41.042969 82.089844 " fill-opacity="1" fill-rule="nonzero"/></svg>