<svg width="80" height="80" viewBox="0 0 80 80" fill="none" xmlns="http://www.w3.org/2000/svg">
<path d="M72.55 29.385L21.04 23.685L17.9 11.7875C17.7908 11.3885 17.5541 11.0361 17.2259 10.7842C16.8978 10.5323 16.4962 10.3948 16.0825 10.3925H8.35C8.07053 10.0163 7.70773 9.70993 7.29004 9.4974C6.87236 9.28487 6.41112 9.17195 5.9425 9.1675C5.11933 9.1675 4.32988 9.4945 3.74781 10.0766C3.16575 10.6586 2.83875 11.4481 2.83875 12.2713C2.83875 13.0944 3.16575 13.8839 3.74781 14.4659C4.32988 15.048 5.11933 15.375 5.9425 15.375C6.9425 15.375 7.7875 14.875 8.355 14.145H14.635L27.71 63.645C26.2837 65.1632 25.4883 67.167 25.485 69.25C25.484 70.3312 25.6962 71.4019 26.1094 72.401C26.5226 73.4001 27.1288 74.308 27.8932 75.0726C28.6575 75.8372 29.5652 76.4436 30.5642 76.8571C31.5631 77.2707 32.6338 77.4832 33.715 77.4825C35.8995 77.4832 37.9949 76.6163 39.5405 75.0726C41.0861 73.5288 41.9555 71.4345 41.9575 69.25C41.9532 68.6239 41.8752 68.0004 41.725 67.3925H55.5575C55.4095 68.0007 55.3324 68.624 55.3275 69.25C55.3275 73.8 59.0175 77.4825 63.5675 77.4825C68.1175 77.4825 71.8 73.8 71.8 69.25C71.8007 67.0651 70.9335 64.9693 69.3892 63.4236C67.8449 61.8779 65.75 61.0088 63.565 61.0075C61.19 61.0075 59.065 62.0325 57.56 63.64H39.72C38.9544 62.8112 38.0258 62.1496 36.9924 61.6966C35.9591 61.2436 34.8433 61.009 33.715 61.0075C32.765 61.0075 31.87 61.2025 31.0225 61.4975L30.5675 59.7825H67.025C68.4261 59.7539 69.7769 59.2552 70.8605 58.3665C71.9441 57.4779 72.6976 56.2509 73 54.8825L76.9375 35.3875C77.0039 35.0465 77.0374 34.6999 77.0375 34.3525C77.0394 33.115 76.5811 31.921 75.7518 31.0025C74.9225 30.0839 73.7813 29.5091 72.55 29.385ZM63.57 69.985C63.3741 69.9844 63.1864 69.9066 63.0475 69.7686C62.9085 69.6306 62.8295 69.4434 62.8275 69.2475C62.835 68.8325 63.165 68.5025 63.5725 68.5025C63.98 68.5025 64.31 68.8325 64.315 69.245C64.3124 69.4404 64.2331 69.627 64.0942 69.7645C63.9553 69.902 63.7679 69.9794 63.5725 69.98L63.57 69.985ZM68.02 51.2475L70.39 48.8725L69.595 52.8225L68.02 51.2475ZM31.8875 28.655L34.475 31.25L31.25 34.475L28.0175 31.25L30.735 28.53L31.8875 28.655ZM43.1325 29.9L44.4775 31.25L41.2525 34.475L38.02 31.25L39.74 29.525L43.1325 29.9ZM24.075 35.19L26.25 33.02L29.475 36.25L26.25 39.475L24.8375 38.0675L24.0775 35.1875L24.075 35.19ZM23.3375 32.39L22.5175 29.29L24.48 31.2525L23.3375 32.39ZM54.475 41.25L51.25 44.475L48.0175 41.25L51.2475 38.0175L54.475 41.25ZM53.0175 36.25L56.2475 33.02L59.4725 36.25L56.2475 39.48L53.0175 36.25ZM46.25 39.475L43.0175 36.25L46.2475 33.0175L49.4725 36.2475L46.25 39.475ZM44.475 41.25L41.25 44.475L38.02 41.25L41.25 38.0175L44.475 41.25ZM36.25 39.475L33.0175 36.25L36.2475 33.0175L39.4725 36.2475L36.25 39.475ZM34.475 41.25L31.25 44.475L28.0175 41.25L31.2475 38.0175L34.475 41.25ZM26.25 43.0175L29.475 46.2475L27.515 48.205L26.165 43.095L26.2475 43.0125L26.25 43.0175ZM28.255 51.01L31.2475 48.0175L34.4725 51.2475L31.2475 54.4725L28.4225 51.6475L28.255 51.01ZM33.02 46.2475L36.245 43.015L39.4775 46.245L36.2525 49.47L33.0225 46.245L33.02 46.2475ZM41.25 48.015L44.48 51.245L41.25 54.47L38.02 51.245L41.25 48.015ZM43.02 46.245L46.25 43.0125L49.475 46.2425L46.25 49.4675L43.02 46.245ZM51.245 48.0125L54.4775 51.2425L51.2525 54.4675L48.0225 51.2375L51.245 48.0125ZM53.02 46.2425L56.245 43.01L59.4775 46.24L56.2525 49.465L53.02 46.2425ZM58.02 41.2425L61.245 38.01L64.4775 41.24L61.2525 44.465L58.02 41.2425ZM63.02 36.2425L66.245 33.01L69.475 36.25L66.25 39.48L63.0175 36.2475L63.02 36.2425ZM61.245 34.4725L58.3575 31.5825L63.5625 32.1575L61.245 34.4725ZM54.48 31.25L51.255 34.48L48.0225 31.25L48.7475 30.525L54.38 31.15L54.48 31.25ZM36.255 29.475L35.875 29.1L36.5575 29.175L36.2575 29.475H36.255ZM26.255 29.48L24.63 27.855L27.555 28.18L26.255 29.48ZM36.255 53.0175L39.2675 56.03H33.2425L36.255 53.0175ZM46.255 53.0175L49.2675 56.0325H43.2375L46.255 53.0175ZM56.255 53.0175L59.2725 56.035H53.2375L56.255 53.0175ZM58.0225 51.2475L61.2525 48.015L64.4775 51.245L61.2525 54.47L58.0225 51.2475ZM63.0225 46.2475L66.2525 43.0175L69.4775 46.2425L66.2525 49.475L63.02 46.25L63.0225 46.2475ZM71.2525 44.4725L68.0225 41.2475L71.2475 38.0175L72.36 39.1275L71.285 44.4375L71.25 44.475L71.2525 44.4725ZM72.5025 33.2225L71.2525 34.4725L69.6025 32.83L72.145 33.11C72.28 33.13 72.395 33.175 72.505 33.22L72.5025 33.2225ZM33.72 69.9825C33.5308 69.9715 33.3531 69.8886 33.223 69.7508C33.093 69.613 33.0206 69.4307 33.0206 69.2413C33.0206 69.0518 33.093 68.8695 33.223 68.7317C33.3531 68.5939 33.5308 68.511 33.72 68.5C33.9085 68.511 34.0857 68.5936 34.2153 68.7309C34.3448 68.8683 34.417 69.0499 34.417 69.2388C34.417 69.4276 34.3448 69.6092 34.2153 69.7466C34.0857 69.8839 33.9085 69.9665 33.72 69.9775V69.9825ZM67.0275 56.0325H63.235L66.2525 53.015L68.5775 55.34C68.11 55.765 67.52 56.065 67.0275 56.0325Z" fill="white"/>
</svg>
