<svg xmlns="http://www.w3.org/2000/svg" xmlns:xlink="http://www.w3.org/1999/xlink" width="500" zoomAndPan="magnify" viewBox="0 0 375 374.999991" height="500" preserveAspectRatio="xMidYMid meet" version="1.0"><defs><clipPath id="08dda1f428"><path d="M 0 0 L 374.992188 0 L 374.992188 374.992188 L 0 374.992188 Z M 0 0 " clip-rule="nonzero"/></clipPath></defs><g clip-path="url(#08dda1f428)"><path fill="#ffffff" d="M 187.496094 363.570312 C 90.410156 363.570312 11.421875 284.585938 11.421875 187.496094 C 11.421875 90.410156 90.410156 11.421875 187.496094 11.421875 C 188.777344 11.421875 190.074219 11.433594 191.339844 11.460938 C 200.148438 11.652344 208.984375 12.5 217.605469 13.984375 C 229.910156 16.105469 242.015625 19.554688 253.582031 24.238281 C 320.398438 51.316406 363.574219 115.394531 363.574219 187.496094 C 363.574219 284.585938 284.585938 363.570312 187.496094 363.570312 Z M 342.183594 81.507812 C 331.839844 66.441406 319.378906 52.980469 305.148438 41.496094 C 290.796875 29.917969 274.890625 20.550781 257.867188 13.65625 C 245.550781 8.664062 232.65625 4.984375 219.542969 2.726562 C 210.363281 1.148438 200.957031 0.246094 191.585938 0.0429688 C 190.226562 0.015625 188.851562 0 187.496094 0 C 162.1875 0 137.632812 4.960938 114.511719 14.738281 C 103.402344 19.4375 92.6875 25.253906 82.660156 32.023438 C 72.734375 38.730469 63.398438 46.433594 54.917969 54.917969 C 46.433594 63.398438 38.734375 72.734375 32.023438 82.660156 C 25.253906 92.683594 19.4375 103.402344 14.738281 114.511719 C 4.957031 137.632812 0 162.1875 0 187.496094 C 0 212.804688 4.957031 237.363281 14.738281 260.480469 C 19.4375 271.59375 25.253906 282.308594 32.023438 292.332031 C 38.730469 302.261719 46.433594 311.59375 54.917969 320.078125 C 63.398438 328.558594 72.734375 336.261719 82.660156 342.96875 C 92.6875 349.742188 103.402344 355.558594 114.511719 360.257812 C 137.632812 370.035156 162.1875 374.992188 187.496094 374.992188 C 212.804688 374.992188 237.363281 370.035156 260.480469 360.257812 C 271.59375 355.558594 282.308594 349.742188 292.332031 342.96875 C 302.261719 336.261719 311.597656 328.558594 320.078125 320.078125 C 328.558594 311.59375 336.261719 302.261719 342.96875 292.332031 C 349.738281 282.308594 355.554688 271.59375 360.257812 260.480469 C 370.035156 237.359375 374.992188 212.804688 374.992188 187.496094 C 374.992188 149.425781 363.648438 112.777344 342.183594 81.507812 " fill-opacity="1" fill-rule="nonzero"/></g><path fill="#ffffff" d="M 158.046875 109.074219 L 158.902344 109.074219 L 158.902344 134.753906 C 158.902344 137.777344 161.347656 140.226562 164.371094 140.226562 C 167.390625 140.226562 169.839844 137.777344 169.839844 134.753906 L 169.839844 109.074219 L 185.523438 109.074219 C 188.546875 109.074219 190.996094 106.625 190.996094 103.605469 C 190.996094 100.585938 188.546875 98.136719 185.523438 98.136719 L 161.246094 98.136719 L 161.246094 83.183594 L 213.734375 83.183594 L 213.734375 98.136719 L 208.183594 98.136719 C 205.164062 98.136719 202.714844 100.585938 202.714844 103.605469 C 202.714844 105.5 203.675781 107.167969 205.140625 108.152344 L 205.140625 167.039062 C 205.140625 167.996094 205.394531 168.941406 205.875 169.773438 L 227.230469 206.761719 C 228.148438 208.488281 229.964844 209.667969 232.0625 209.667969 C 235.082031 209.667969 237.53125 207.21875 237.53125 204.199219 C 237.53125 203.070312 237.1875 202.019531 236.601562 201.148438 L 216.078125 165.570312 L 216.078125 109.074219 L 216.933594 109.074219 C 221.203125 109.074219 224.675781 105.636719 224.675781 101.417969 L 224.675781 79.902344 C 224.675781 75.679688 221.203125 72.246094 216.933594 72.246094 L 158.046875 72.246094 C 153.777344 72.246094 150.304688 75.679688 150.304688 79.902344 L 150.304688 101.417969 C 150.304688 105.636719 153.777344 109.074219 158.046875 109.074219 " fill-opacity="1" fill-rule="nonzero"/><path fill="#ffffff" d="M 81.824219 74.832031 C 79.699219 72.738281 76.277344 72.761719 74.183594 74.886719 C 72.09375 77.011719 72.117188 80.429688 74.242188 82.523438 L 292.847656 297.90625 C 293.902344 298.941406 295.269531 299.460938 296.640625 299.460938 C 298.035156 299.460938 299.429688 298.921875 300.488281 297.847656 C 302.578125 295.722656 302.554688 292.304688 300.429688 290.214844 L 81.824219 74.832031 " fill-opacity="1" fill-rule="nonzero"/><path fill="#ffffff" d="M 263.394531 280.109375 C 261.308594 280.109375 259.492188 281.28125 258.570312 283 C 255.035156 288.289062 249.015625 291.789062 242.1875 291.808594 C 242.136719 291.808594 242.089844 291.808594 242.035156 291.808594 L 132.851562 291.808594 C 125.8125 291.808594 119.253906 288.023438 115.738281 281.929688 C 112.21875 275.835938 112.21875 268.261719 115.738281 262.167969 L 145.246094 211.054688 L 178.15625 211.070312 C 181.175781 211.070312 183.625 208.621094 183.625 205.601562 C 183.625 202.578125 181.175781 200.128906 178.15625 200.128906 L 151.5625 200.117188 L 160.289062 185.113281 C 160.441406 184.890625 160.578125 184.660156 160.695312 184.414062 L 160.699219 184.414062 C 161.046875 183.695312 161.246094 182.882812 161.246094 182.027344 C 161.246094 179.007812 158.796875 176.558594 155.777344 176.558594 C 153.78125 176.558594 152.039062 177.625 151.082031 179.21875 L 151.019531 179.179688 L 106.265625 256.699219 C 100.796875 266.167969 100.796875 277.929688 106.265625 287.398438 C 111.730469 296.867188 121.917969 302.75 132.851562 302.75 L 242.105469 302.75 C 242.113281 302.75 242.121094 302.75 242.132812 302.75 C 253.019531 302.75 262.601562 297.046875 268.054688 288.472656 C 268.070312 288.449219 268.078125 288.421875 268.085938 288.390625 C 268.578125 287.570312 268.863281 286.609375 268.863281 285.582031 C 268.863281 282.558594 266.414062 280.109375 263.394531 280.109375 " fill-opacity="1" fill-rule="nonzero"/><path fill="#ffffff" d="M 165.710938 254.761719 C 165.710938 258.519531 162.65625 261.574219 158.902344 261.574219 C 155.144531 261.574219 152.089844 258.519531 152.089844 254.761719 C 152.089844 251.007812 155.144531 247.953125 158.902344 247.953125 C 162.65625 247.953125 165.710938 251.007812 165.710938 254.761719 Z M 141.289062 254.761719 C 141.289062 264.476562 149.1875 272.375 158.902344 272.375 C 168.613281 272.375 176.511719 264.476562 176.511719 254.761719 C 176.511719 245.050781 168.613281 237.152344 158.902344 237.152344 C 149.1875 237.152344 141.289062 245.050781 141.289062 254.761719 " fill-opacity="1" fill-rule="nonzero"/><path fill="#ffffff" d="M 196.078125 236.988281 C 196.078125 236.339844 196.605469 235.8125 197.25 235.8125 C 197.898438 235.8125 198.421875 236.339844 198.421875 236.988281 C 198.421875 237.632812 197.898438 238.160156 197.25 238.160156 C 196.605469 238.160156 196.078125 237.632812 196.078125 236.988281 Z M 206.878906 236.988281 C 206.878906 231.679688 202.558594 227.359375 197.25 227.359375 C 191.941406 227.359375 187.621094 231.679688 187.621094 236.988281 C 187.621094 242.296875 191.941406 246.617188 197.25 246.617188 C 202.558594 246.617188 206.878906 242.296875 206.878906 236.988281 " fill-opacity="1" fill-rule="nonzero"/></svg>