<svg xmlns="http://www.w3.org/2000/svg" xmlns:xlink="http://www.w3.org/1999/xlink" width="500" zoomAndPan="magnify" viewBox="0 0 375 374.999991" height="500" preserveAspectRatio="xMidYMid meet" version="1.0"><path fill="#ffffff" d="M 157.410156 292.632812 L 157.410156 324.300781 L 187.652344 339.421875 L 217.894531 324.300781 L 217.894531 292.632812 L 187.652344 277.511719 Z M 205.796875 316.828125 L 187.652344 325.898438 L 169.507812 316.828125 L 169.507812 300.109375 L 187.652344 291.035156 L 205.796875 300.109375 Z M 205.796875 316.828125 " fill-opacity="1" fill-rule="nonzero"/><path fill="#ffffff" d="M 84.828125 278.226562 L 96.925781 278.226562 L 96.925781 290.324219 L 84.828125 290.324219 Z M 84.828125 278.226562 " fill-opacity="1" fill-rule="nonzero"/><path fill="#ffffff" d="M 60.636719 278.226562 L 72.730469 278.226562 L 72.730469 290.324219 L 60.636719 290.324219 Z M 60.636719 278.226562 " fill-opacity="1" fill-rule="nonzero"/><path fill="#ffffff" d="M 36.441406 278.226562 L 48.539062 278.226562 L 48.539062 290.324219 L 36.441406 290.324219 Z M 36.441406 278.226562 " fill-opacity="1" fill-rule="nonzero"/><path fill="#ffffff" d="M 181.601562 12.097656 L 193.699219 12.097656 L 193.699219 24.195312 L 181.601562 24.195312 Z M 181.601562 12.097656 " fill-opacity="1" fill-rule="nonzero"/><path fill="#ffffff" d="M 205.796875 12.097656 L 217.894531 12.097656 L 217.894531 24.195312 L 205.796875 24.195312 Z M 205.796875 12.097656 " fill-opacity="1" fill-rule="nonzero"/><path fill="#ffffff" d="M 229.988281 12.097656 L 242.085938 12.097656 L 242.085938 24.195312 L 229.988281 24.195312 Z M 229.988281 12.097656 " fill-opacity="1" fill-rule="nonzero"/><path fill="#ffffff" d="M 254.183594 12.097656 L 266.28125 12.097656 L 266.28125 24.195312 L 254.183594 24.195312 Z M 254.183594 12.097656 " fill-opacity="1" fill-rule="nonzero"/><path fill="#ffffff" d="M 358.039062 127.65625 C 355.984375 123.53125 351.839844 120.96875 347.21875 120.96875 L 326.765625 120.96875 L 326.765625 96.773438 C 326.765625 90.101562 321.339844 84.675781 314.667969 84.675781 L 302.570312 84.675781 L 302.570312 72.582031 L 350.957031 72.582031 C 357.628906 72.582031 363.054688 67.15625 363.054688 60.484375 C 363.054688 47.140625 352.203125 36.289062 338.859375 36.289062 L 242.085938 36.289062 C 235.414062 36.289062 229.988281 41.714844 229.988281 48.386719 L 229.988281 60.484375 C 229.988281 67.15625 235.414062 72.582031 242.085938 72.582031 L 266.28125 72.582031 L 266.28125 84.675781 L 254.183594 84.675781 C 247.511719 84.675781 242.085938 90.101562 242.085938 96.773438 L 242.085938 120.96875 L 221.632812 120.96875 C 217.011719 120.96875 212.867188 123.53125 210.808594 127.652344 L 193.699219 161.871094 L 193.699219 217.742188 L 152.273438 217.742188 L 157.558594 112.011719 L 109.023438 75.605469 L 109.023438 36.289062 C 115.695312 36.289062 121.117188 30.863281 121.117188 24.195312 L 121.117188 12.097656 C 121.117188 5.425781 115.695312 0 109.023438 0 L 48.539062 0 C 41.867188 0 36.441406 5.425781 36.441406 12.097656 L 36.441406 24.195312 C 36.441406 30.863281 41.867188 36.289062 48.539062 36.289062 L 48.539062 75.605469 L 0 112.011719 L 11.105469 334.171875 C 11.914062 350.285156 25.179688 362.902344 41.308594 362.902344 L 110.140625 362.902344 C 112.644531 369.925781 119.296875 375 127.171875 375 L 248.140625 375 C 256.015625 375 262.667969 369.925781 265.171875 362.902344 L 357.011719 362.902344 C 367.015625 362.902344 375.15625 354.761719 375.15625 344.757812 L 375.15625 161.878906 Z M 314.667969 96.773438 L 314.667969 120.96875 L 302.570312 120.96875 L 302.570312 96.773438 Z M 284.425781 120.96875 L 278.378906 120.96875 L 278.378906 96.773438 L 290.472656 96.773438 L 290.472656 120.96875 Z M 242.085938 48.386719 L 338.859375 48.386719 C 345.53125 48.386719 350.957031 53.8125 350.957031 60.484375 L 242.085938 60.484375 Z M 278.378906 72.582031 L 290.472656 72.582031 L 290.472656 84.675781 L 278.378906 84.675781 Z M 254.183594 96.773438 L 266.28125 96.773438 L 266.28125 120.96875 L 254.183594 120.96875 Z M 221.636719 133.066406 L 347.226562 133.066406 L 359.324219 157.257812 L 209.539062 157.257812 Z M 259.421875 252.785156 C 263.460938 250.828125 266.28125 246.71875 266.28125 241.933594 L 266.28125 229.839844 C 266.28125 225.007812 263.414062 220.855469 259.300781 218.921875 L 284.425781 206.359375 L 326.765625 227.527344 L 326.765625 280.535156 L 284.425781 301.707031 L 266.28125 292.632812 L 266.28125 277.183594 C 266.28125 268.578125 263.820312 260.117188 259.421875 252.785156 Z M 254.183594 229.839844 L 254.195312 241.933594 L 121.117188 241.933594 L 121.117188 229.839844 Z M 78.78125 254.03125 C 62.105469 254.03125 48.539062 240.464844 48.539062 223.789062 C 48.539062 202.335938 69.328125 173.070312 78.78125 160.855469 C 88.238281 173.0625 109.023438 202.304688 109.023438 223.789062 C 109.023438 240.464844 95.457031 254.03125 78.78125 254.03125 Z M 48.539062 12.097656 L 109.023438 12.097656 L 109.035156 24.195312 L 48.539062 24.195312 Z M 96.925781 36.289062 L 96.925781 72.582031 L 60.636719 72.582031 L 60.636719 36.289062 Z M 56.605469 84.675781 L 100.960938 84.675781 L 133.214844 108.871094 L 24.351562 108.871094 Z M 23.191406 333.570312 L 12.5625 120.96875 L 145.003906 120.96875 L 140.160156 217.742188 L 121.117188 217.742188 C 120.980469 217.742188 120.851562 217.777344 120.71875 217.785156 C 116.804688 186.617188 84.816406 148.964844 83.371094 147.277344 L 78.78125 141.917969 L 74.191406 147.277344 C 72.652344 149.070312 36.441406 191.679688 36.441406 223.789062 C 36.441406 247.132812 55.441406 266.128906 78.78125 266.128906 C 92.285156 266.128906 104.304688 259.746094 112.066406 249.871094 C 113.128906 251.085938 114.417969 252.078125 115.882812 252.792969 C 111.484375 260.121094 109.023438 268.578125 109.023438 277.191406 L 109.023438 350.804688 L 41.308594 350.804688 C 31.628906 350.804688 23.671875 343.234375 23.191406 333.570312 Z M 254.183594 356.855469 C 254.183594 360.195312 251.472656 362.902344 248.136719 362.902344 L 127.167969 362.902344 C 123.828125 362.902344 121.117188 360.195312 121.117188 356.855469 L 121.117188 277.183594 C 121.117188 268.707031 124.289062 260.414062 129.839844 254.03125 L 245.460938 254.03125 C 251.015625 260.414062 254.183594 268.707031 254.183594 277.183594 Z M 357.007812 350.804688 L 266.28125 350.804688 L 266.28125 306.15625 L 284.425781 315.230469 L 338.859375 288.011719 L 338.859375 220.050781 L 284.425781 192.835938 L 234.609375 217.742188 L 205.796875 217.742188 L 205.796875 169.355469 L 363.054688 169.355469 L 363.054688 344.757812 C 363.054688 348.097656 360.34375 350.804688 357.007812 350.804688 Z M 357.007812 350.804688 " fill-opacity="1" fill-rule="nonzero"/></svg>