<svg xmlns="http://www.w3.org/2000/svg" xmlns:xlink="http://www.w3.org/1999/xlink" width="500" zoomAndPan="magnify" viewBox="0 0 375 374.999991" height="500" preserveAspectRatio="xMidYMid meet" version="1.0"><defs><clipPath id="cfd92d71d0"><path d="M 69.375 0 L 295 0 L 295 374 L 69.375 374 Z M 69.375 0 " clip-rule="nonzero"/></clipPath></defs><g clip-path="url(#cfd92d71d0)"><path fill="#ffffff" d="M 261.1875 32.945312 C 258.546875 30.324219 255.777344 27.839844 252.886719 25.492188 C 249.996094 23.148438 246.996094 20.949219 243.882812 18.90625 C 240.773438 16.859375 237.570312 14.972656 234.269531 13.246094 C 230.972656 11.519531 227.59375 9.960938 224.140625 8.574219 C 220.683594 7.183594 217.171875 5.972656 213.59375 4.933594 C 210.019531 3.898438 206.398438 3.039062 202.738281 2.363281 C 199.078125 1.6875 195.390625 1.195312 191.679688 0.886719 C 187.96875 0.582031 184.253906 0.457031 180.53125 0.523438 C 119.519531 1.378906 69.746094 51.714844 69.535156 112.730469 C 69.511719 118.097656 69.871094 123.441406 70.613281 128.753906 C 71.355469 134.070312 72.472656 139.308594 73.964844 144.460938 C 75.460938 149.617188 77.3125 154.640625 79.527344 159.53125 C 81.738281 164.421875 84.289062 169.128906 87.179688 173.652344 C 108.691406 207.328125 125.625 241.644531 137.492188 275.632812 L 140.519531 284.28125 L 225.492188 284.28125 L 232.335938 264.699219 C 242.957031 234.292969 258.058594 203.578125 277.230469 173.375 C 278.933594 170.683594 280.519531 167.925781 281.992188 165.101562 C 283.460938 162.277344 284.808594 159.394531 286.035156 156.453125 C 287.261719 153.511719 288.359375 150.527344 289.332031 147.492188 C 290.304688 144.460938 291.148438 141.390625 291.859375 138.289062 C 292.574219 135.183594 293.152344 132.054688 293.597656 128.898438 C 294.046875 125.746094 294.359375 122.578125 294.535156 119.398438 C 294.714844 116.21875 294.757812 113.035156 294.664062 109.851562 C 294.570312 106.667969 294.34375 103.496094 293.984375 100.332031 C 293.621094 97.164062 293.128906 94.023438 292.5 90.898438 C 291.871094 87.777344 291.113281 84.6875 290.222656 81.628906 C 289.332031 78.570312 288.3125 75.554688 287.164062 72.582031 C 286.019531 69.613281 284.75 66.695312 283.355469 63.828125 C 281.960938 60.964844 280.449219 58.167969 278.816406 55.429688 C 277.1875 52.695312 275.441406 50.035156 273.585938 47.445312 C 271.726562 44.859375 269.765625 42.355469 267.695312 39.933594 C 265.625 37.511719 263.457031 35.183594 261.1875 32.945312 Z M 268.449219 167.785156 C 248.851562 198.652344 233.414062 230.097656 222.519531 261.253906 L 218.121094 273.84375 L 188.460938 273.84375 L 188.460938 204.488281 L 191.078125 166.046875 C 262.960938 144.753906 249.648438 91.511719 249.648438 91.511719 C 203.964844 94.042969 188.132812 113.125 182.9375 129.003906 L 181.625 122.695312 C 176.667969 70.421875 135.414062 81.066406 135.414062 81.066406 C 137.515625 126.296875 173.753906 126.738281 173.753906 126.738281 C 176.871094 115.339844 158.160156 95.886719 158.160156 95.886719 C 170.730469 100.441406 177.90625 121.183594 181.394531 135.1875 C 180.390625 140.433594 180.308594 145.691406 181.148438 150.960938 L 219.507812 120.789062 C 219.507812 120.789062 187.558594 150.074219 183.125 158.953125 C 181.632812 161.933594 181.148438 176.707031 181.148438 195.066406 L 177.496094 185.375 C 161.53125 123.105469 113.632812 143.867188 113.632812 143.867188 C 124.8125 198.152344 168.714844 191.761719 168.714844 191.761719 C 170.3125 177.394531 143.96875 157.4375 143.96875 157.4375 C 161.390625 160.808594 174.785156 188.410156 181.195312 204.464844 L 178.347656 273.824219 L 147.933594 273.824219 L 147.355469 272.167969 C 135.21875 237.417969 117.933594 202.371094 95.984375 168.007812 C 93.363281 163.90625 91.046875 159.636719 89.039062 155.199219 C 87.03125 150.765625 85.351562 146.207031 83.996094 141.53125 C 82.640625 136.855469 81.628906 132.105469 80.953125 127.28125 C 80.28125 122.460938 79.957031 117.613281 79.980469 112.746094 C 80.15625 57.402344 125.335938 11.738281 180.679688 10.957031 L 182.171875 10.957031 C 184.441406 10.957031 186.714844 11.035156 188.980469 11.1875 C 191.25 11.339844 193.507812 11.570312 195.761719 11.871094 C 198.015625 12.175781 200.253906 12.554688 202.480469 13.007812 C 204.707031 13.460938 206.917969 13.988281 209.109375 14.585938 C 211.300781 15.1875 213.472656 15.859375 215.617188 16.605469 C 217.765625 17.351562 219.886719 18.167969 221.976562 19.054688 C 224.070312 19.941406 226.132812 20.894531 228.160156 21.921875 C 230.191406 22.945312 232.183594 24.035156 234.136719 25.191406 C 236.09375 26.347656 238.011719 27.570312 239.882812 28.855469 C 241.757812 30.140625 243.589844 31.488281 245.375 32.894531 C 247.160156 34.300781 248.894531 35.765625 250.582031 37.289062 C 252.269531 38.8125 253.902344 40.390625 255.484375 42.019531 C 257.066406 43.652344 258.59375 45.335938 260.0625 47.070312 C 261.53125 48.804688 262.941406 50.585938 264.292969 52.414062 C 265.644531 54.242188 266.929688 56.109375 268.15625 58.023438 C 269.382812 59.9375 270.542969 61.890625 271.640625 63.882812 C 272.734375 65.875 273.761719 67.898438 274.722656 69.960938 C 275.683594 72.019531 276.574219 74.109375 277.394531 76.230469 C 278.214844 78.347656 278.964844 80.492188 279.644531 82.660156 C 280.320312 84.832031 280.925781 87.019531 281.457031 89.230469 C 281.988281 91.441406 282.445312 93.664062 282.828125 95.90625 C 283.210938 98.144531 283.519531 100.394531 283.753906 102.65625 C 283.988281 104.917969 284.144531 107.183594 284.226562 109.457031 C 284.308594 111.726562 284.3125 114 284.242188 116.269531 C 284.175781 118.542969 284.027344 120.808594 283.808594 123.070312 C 283.585938 125.332031 283.289062 127.585938 282.917969 129.828125 C 282.546875 132.070312 282.101562 134.296875 281.582031 136.507812 C 281.0625 138.722656 280.46875 140.914062 279.804688 143.085938 C 279.136719 145.261719 278.398438 147.410156 277.589844 149.53125 C 276.78125 151.65625 275.898438 153.75 274.949219 155.816406 C 274 157.878906 272.984375 159.910156 271.898438 161.910156 C 270.8125 163.90625 269.664062 165.863281 268.449219 167.785156 Z M 224.621094 314.496094 L 143.851562 314.496094 C 143.515625 314.496094 143.191406 314.433594 142.878906 314.304688 C 142.570312 314.175781 142.292969 313.992188 142.054688 313.753906 C 141.816406 313.519531 141.632812 313.246094 141.503906 312.933594 C 141.375 312.625 141.308594 312.300781 141.308594 311.964844 L 141.308594 291.292969 C 141.308594 290.957031 141.375 290.632812 141.503906 290.324219 C 141.632812 290.011719 141.816406 289.738281 142.054688 289.5 C 142.292969 289.265625 142.570312 289.082031 142.878906 288.953125 C 143.191406 288.824219 143.515625 288.757812 143.851562 288.757812 L 224.621094 288.757812 C 224.957031 288.757812 225.277344 288.824219 225.589844 288.953125 C 225.898438 289.082031 226.175781 289.265625 226.410156 289.5 C 226.648438 289.738281 226.832031 290.011719 226.960938 290.324219 C 227.089844 290.632812 227.152344 290.957031 227.152344 291.292969 L 227.152344 311.964844 C 227.152344 312.300781 227.089844 312.621094 226.960938 312.933594 C 226.832031 313.242188 226.648438 313.515625 226.410156 313.753906 C 226.171875 313.992188 225.898438 314.171875 225.589844 314.300781 C 225.277344 314.429688 224.957031 314.496094 224.621094 314.496094 Z M 227.152344 322.523438 L 227.152344 341.160156 C 227.152344 341.628906 227.0625 342.082031 226.882812 342.515625 C 226.703125 342.953125 226.449219 343.335938 226.113281 343.667969 C 225.78125 344 225.398438 344.257812 224.964844 344.4375 C 224.527344 344.617188 224.078125 344.707031 223.605469 344.707031 L 212.695312 344.707031 C 212.710938 345.652344 212.675781 346.59375 212.597656 347.53125 C 212.519531 348.472656 212.398438 349.40625 212.226562 350.332031 C 212.054688 351.261719 211.839844 352.179688 211.578125 353.082031 C 211.316406 353.988281 211.007812 354.878906 210.660156 355.757812 C 210.308594 356.632812 209.914062 357.488281 209.480469 358.324219 C 209.042969 359.160156 208.570312 359.976562 208.054688 360.765625 C 207.535156 361.554688 206.984375 362.316406 206.390625 363.050781 C 205.800781 363.785156 205.171875 364.488281 204.511719 365.160156 C 203.851562 365.832031 203.15625 366.46875 202.433594 367.074219 C 201.707031 367.675781 200.953125 368.242188 200.171875 368.773438 C 199.390625 369.300781 198.585938 369.789062 197.757812 370.238281 C 196.929688 370.6875 196.078125 371.09375 195.207031 371.457031 C 194.339844 371.824219 193.453125 372.144531 192.550781 372.417969 C 191.648438 372.695312 190.734375 372.925781 189.8125 373.113281 C 188.886719 373.300781 187.957031 373.4375 187.015625 373.53125 C 186.078125 373.625 185.136719 373.671875 184.195312 373.671875 C 183.25 373.671875 182.308594 373.625 181.371094 373.53125 C 180.433594 373.4375 179.5 373.300781 178.578125 373.113281 C 177.652344 372.925781 176.738281 372.695312 175.835938 372.417969 C 174.9375 372.144531 174.050781 371.824219 173.179688 371.457031 C 172.308594 371.09375 171.460938 370.6875 170.632812 370.238281 C 169.800781 369.789062 168.996094 369.300781 168.214844 368.773438 C 167.433594 368.242188 166.679688 367.675781 165.957031 367.074219 C 165.230469 366.46875 164.539062 365.832031 163.878906 365.160156 C 163.214844 364.488281 162.589844 363.785156 161.996094 363.050781 C 161.40625 362.316406 160.851562 361.554688 160.335938 360.765625 C 159.820312 359.976562 159.34375 359.160156 158.910156 358.324219 C 158.472656 357.488281 158.082031 356.632812 157.730469 355.757812 C 157.378906 354.878906 157.074219 353.988281 156.8125 353.082031 C 156.550781 352.179688 156.332031 351.261719 156.164062 350.332031 C 155.992188 349.40625 155.867188 348.472656 155.789062 347.53125 C 155.710938 346.59375 155.679688 345.652344 155.695312 344.707031 L 144.863281 344.707031 C 144.394531 344.707031 143.941406 344.617188 143.503906 344.4375 C 143.070312 344.257812 142.6875 344 142.351562 343.667969 C 142.019531 343.335938 141.761719 342.953125 141.582031 342.519531 C 141.402344 342.082031 141.308594 341.628906 141.308594 341.160156 L 141.308594 322.523438 C 141.308594 322.054688 141.402344 321.601562 141.582031 321.167969 C 141.761719 320.730469 142.019531 320.347656 142.351562 320.015625 C 142.6875 319.683594 143.070312 319.425781 143.503906 319.246094 C 143.941406 319.066406 144.394531 318.976562 144.863281 318.976562 L 223.578125 318.976562 C 224.046875 318.976562 224.5 319.066406 224.933594 319.246094 C 225.367188 319.425781 225.753906 319.683594 226.085938 320.015625 C 226.417969 320.347656 226.675781 320.734375 226.855469 321.167969 C 227.035156 321.601562 227.125 322.054688 227.125 322.523438 Z M 227.152344 322.523438 " fill-opacity="1" fill-rule="nonzero"/></g></svg>