<svg xmlns="http://www.w3.org/2000/svg" xmlns:xlink="http://www.w3.org/1999/xlink" width="500" zoomAndPan="magnify" viewBox="0 0 375 374.999991" height="500" preserveAspectRatio="xMidYMid meet" version="1.0"><path fill="#ffffff" d="M 187.457031 362.566406 C 90.902344 362.566406 12.34375 284.007812 12.34375 187.457031 C 12.34375 90.898438 90.902344 12.34375 187.457031 12.34375 C 284.011719 12.34375 362.5625 90.898438 362.5625 187.457031 C 362.5625 284.007812 284.011719 362.566406 187.457031 362.566406 Z M 187.457031 -0.0351562 C 84.074219 -0.0351562 -0.0351562 84.074219 -0.0351562 187.457031 C -0.0351562 290.839844 84.074219 374.949219 187.457031 374.949219 C 290.839844 374.949219 374.949219 290.839844 374.949219 187.457031 C 374.949219 84.074219 290.839844 -0.0351562 187.457031 -0.0351562 " fill-opacity="1" fill-rule="nonzero"/><path fill="#ffffff" d="M 143.285156 196.257812 C 140.804688 197.128906 139.140625 199.472656 139.140625 202.101562 L 139.140625 281.285156 C 139.15625 282.855469 138.632812 287.898438 136.15625 290.390625 C 135.453125 291.101562 134.199219 292.050781 131.511719 292.050781 C 124.066406 292.050781 123.578125 283.257812 123.558594 281.527344 L 123.558594 201.773438 C 123.558594 198.808594 121.429688 196.253906 118.519531 195.691406 C 117.507812 195.492188 93.675781 190.597656 91.570312 166.820312 C 89.175781 139.929688 93.390625 93.6875 93.785156 89.472656 C 94.210938 87.5 95.40625 85.0625 96.203125 84.53125 C 96.949219 85.335938 97.871094 87.835938 98.1875 89.945312 L 98.1875 150.050781 C 97.960938 153.3125 99.164062 156.570312 101.597656 159.261719 C 104.808594 162.8125 109.6875 164.851562 114.980469 164.851562 C 126.136719 164.851562 130.183594 157.308594 130.183594 152.238281 L 130.183594 90.523438 C 130.574219 87.445312 131.953125 84.160156 132.910156 83.5625 C 133.71875 84.558594 134.503906 87.871094 134.527344 90.492188 L 134.527344 152.765625 C 134.5 153.691406 134.546875 158.492188 138.246094 162.300781 C 140.042969 164.15625 143.335938 166.367188 148.792969 166.367188 C 154.316406 166.367188 158.613281 164.828125 161.558594 161.796875 C 165.027344 158.222656 165.09375 154.058594 165.070312 153.4375 L 165.070312 90.164062 C 165.070312 90.074219 165.066406 89.953125 165.066406 89.867188 C 164.964844 87.609375 165.535156 83.527344 167.054688 81.941406 C 167.394531 81.582031 167.871094 81.25 169.011719 81.25 C 170.078125 81.25 171.710938 85.78125 171.832031 89.925781 C 171.84375 90.628906 172.664062 160.550781 172.664062 169.097656 C 172.664062 175.617188 164.691406 188.75 143.285156 196.257812 Z M 169.011719 68.867188 C 164.679688 68.867188 160.890625 70.445312 158.058594 73.425781 C 152.539062 79.25 152.621094 88.542969 152.6875 90.300781 L 152.691406 153.613281 C 152.691406 153.605469 152.679688 153.164062 152.679688 153.164062 C 152.648438 153.199219 151.851562 153.980469 148.792969 153.980469 C 146.960938 153.980469 146.9375 153.589844 146.90625 152.953125 L 146.90625 90.492188 C 146.90625 80.847656 142.609375 71.117188 133 71.117188 C 122.488281 71.117188 118.519531 82.703125 117.832031 89.542969 C 117.8125 89.75 117.800781 89.957031 117.800781 90.164062 L 117.800781 151.875 C 117.648438 152.082031 116.765625 152.472656 114.980469 152.472656 C 112.28125 152.472656 110.855469 151.214844 110.558594 150.660156 C 110.5625 150.542969 110.566406 150.425781 110.566406 150.304688 L 110.566406 89.535156 C 110.566406 89.300781 110.554688 89.066406 110.527344 88.835938 C 109.578125 80.492188 104.820312 72.074219 96.335938 72.074219 C 86.953125 72.074219 82.636719 81.722656 81.566406 87.425781 C 81.535156 87.605469 81.507812 87.789062 81.488281 87.972656 C 81.289062 90.03125 76.636719 138.714844 79.234375 167.914062 C 81.285156 191.066406 98.886719 202.523438 111.171875 206.542969 L 111.171875 281.527344 C 111.171875 290.734375 116.589844 304.433594 131.511719 304.433594 C 136.890625 304.433594 141.558594 302.566406 145.019531 299.039062 C 151.546875 292.382812 151.546875 282.21875 151.527344 281.199219 L 151.527344 206.371094 C 174.523438 196.96875 185.050781 180.765625 185.050781 169.097656 C 185.050781 160.476562 184.25 92.660156 184.214844 89.714844 C 183.984375 79.335938 179.191406 68.867188 169.011719 68.867188 " fill-opacity="1" fill-rule="nonzero"/><path fill="#ffffff" d="M 256.328125 192.886719 C 254.140625 193.902344 252.734375 196.09375 252.734375 198.511719 L 252.734375 285.347656 C 252.734375 285.519531 252.75 285.75 252.765625 285.925781 C 252.851562 286.960938 252.726562 290.316406 251.09375 292.089844 C 250.734375 292.480469 249.636719 293.667969 246.191406 293.667969 C 238.445312 293.667969 236.089844 288.042969 235.503906 286.054688 L 235.503906 198.496094 C 235.503906 196.085938 234.101562 193.894531 231.914062 192.882812 C 215.355469 185.195312 204.230469 163.738281 204.230469 139.492188 C 204.230469 108.378906 222.132812 83.066406 244.136719 83.066406 C 266.15625 83.066406 284.070312 108.378906 284.070312 139.492188 C 284.070312 163.765625 272.921875 185.226562 256.328125 192.886719 Z M 244.136719 70.683594 C 215.304688 70.683594 191.847656 101.550781 191.847656 139.492188 C 191.847656 166.777344 204.265625 191.390625 223.117188 202.253906 L 223.117188 286.824219 C 223.117188 287.242188 223.164062 287.660156 223.246094 288.070312 C 224.519531 294.289062 230.957031 306.054688 246.191406 306.054688 C 253.613281 306.054688 257.96875 302.957031 260.3125 300.355469 C 265.421875 294.699219 265.257812 287.050781 265.117188 285.097656 L 265.117188 202.273438 C 284.007812 191.429688 296.453125 166.808594 296.453125 139.492188 C 296.453125 101.550781 272.984375 70.683594 244.136719 70.683594 " fill-opacity="1" fill-rule="nonzero"/></svg>