<svg width="207" height="151" viewBox="0 0 207 151" fill="none" xmlns="http://www.w3.org/2000/svg">
<path d="M20.7844 72.4724V63.9724C20.7844 63.9724 -4.71561 84.5124 0.774395 103.462C0.774395 103.462 26.4544 153.052 158.914 77.9624L184.774 57.5924L187.434 68.3924C187.434 68.3924 201.774 56.8824 206.024 32.0924L173.614 45.7324L179.814 51.7524C179.814 51.7524 136.254 83.6324 78.1644 93.1924C78.1644 93.1924 3.07441 110.902 20.7844 72.4724Z" fill="#D7B322"/>
<path d="M134.714 62.4924C134.714 62.4924 83.9444 92.0124 32.9444 86.3424C32.9444 86.3424 23.7344 53.5224 45.6944 26.3724C45.6944 26.3724 74.0244 -7.6276 119.834 1.5824C119.834 1.5824 134.904 2.98239 156.194 23.5424C156.194 23.5424 164.694 7.72241 138.014 3.47241C138.014 3.47241 161.624 -0.537604 172.724 13.3924C172.724 13.3924 185.004 49.0424 73.7844 71.9524C73.7944 71.9424 98.3444 75.0124 134.714 62.4924Z" fill="#1C3E91"/>
<path d="M40.0244 119.522C40.0244 119.522 23.2644 151.512 71.6644 142.772C71.6644 142.772 104.724 164.022 145.574 135.692C145.574 135.692 178.634 114.912 174.144 74.7724C174.144 74.7724 125.974 119.872 68.1244 128.372C68.1244 128.372 97.8744 130.732 124.794 118.222C124.794 118.222 108.974 131.212 78.7544 132.622C78.7544 132.622 52.1944 139.592 47.5844 122.232L47.7144 119.272L40.0244 119.522Z" fill="#D11945"/>
</svg>
