<svg width="98" height="84" viewBox="0 0 98 84" fill="none" xmlns="http://www.w3.org/2000/svg">
<path d="M3.19572 61.3254H0V59.6397H8.65322V61.3254H5.47021V69.145H3.19572V61.3254Z" fill="black"/>
<path d="M17.2937 65.0471H12.2651V67.4622H17.8115L17.5415 69.1478H10.0573V59.6426H17.5129V61.3283H12.2651V63.3643H17.2937V65.0471Z" fill="black"/>
<path d="M21.4552 66.951L20.6356 69.145H18.3992L21.9698 59.6397H24.8256L28.5486 69.145H26.1598L25.2957 66.951H21.4552ZM24.8065 65.2653C24.06 63.2609 23.5835 61.9772 23.3294 61.1244H23.3135C23.053 62.0605 22.5289 63.5538 21.9317 65.2653H24.8065Z" fill="black"/>
<path d="M38.787 65.5812C38.787 63.9587 38.8156 62.1409 38.8601 61.0669H38.787C38.2915 63.0053 37.2432 66.1728 36.233 69.145H34.2984C33.5328 66.5461 32.4432 62.9393 31.9826 61.0411H31.9127C32.0017 62.1553 32.0461 64.1109 32.0461 65.742V69.145H29.975V59.6397H33.3581C34.1777 62.1237 35.0957 65.2395 35.4134 66.6552H35.4293C35.6866 65.406 36.8429 62.0749 37.7197 59.6397H40.9789V69.145H38.787V65.5812Z" fill="black"/>
<path d="M49.2732 61.3254H46.0775V59.6397H54.7307V61.3254H51.5477V69.145H49.2732V61.3254Z" fill="black"/>
<path d="M65.0644 66.2158C64.6419 67.9877 63.1616 69.2799 60.5313 69.2799C57.199 69.2799 55.6202 67.1463 55.6202 64.444C55.6202 61.8394 57.2466 59.5047 60.6393 59.5047C63.4379 59.5047 64.7944 60.9894 65.0517 62.5803H62.7772C62.558 61.848 61.9925 61.1186 60.5662 61.1186C58.692 61.1186 57.9677 62.6435 57.9677 64.3722C57.9677 65.9775 58.5967 67.6718 60.6266 67.6718C62.1101 67.6718 62.5771 66.7729 62.7772 66.2187H65.0644V66.2158Z" fill="black"/>
<path d="M66.9958 59.6426H69.2703V63.3499H73.5016V59.6426H75.7761V69.1478H73.5016V65.0356H69.2703V69.1478H66.9958V59.6426Z" fill="black"/>
<path d="M80.2488 66.951L79.4292 69.145H77.1929L80.7634 59.6397H83.6193L87.3423 69.145H84.9535L84.0894 66.951H80.2488ZM83.6002 65.2653C82.8537 63.2609 82.3772 61.9772 82.1231 61.1244H82.1072C81.8467 62.0605 81.3225 63.5538 80.7253 65.2653H83.6002Z" fill="black"/>
<path d="M88.7686 59.6426H92.9364C95.9987 59.6426 98 61.4661 98 64.2746C98 67.0458 96.0591 69.145 92.8411 69.145H88.7686V59.6426ZM91.0431 67.4851H92.749C94.763 67.4851 95.6556 66.1297 95.6556 64.2803C95.6556 62.7268 94.8202 61.3024 92.7617 61.3024H91.0431V67.4851Z" fill="black"/>
<path d="M23.0117 20.8118V18.3708C23.0117 18.3708 14.9112 24.2692 16.6552 29.7111C16.6552 29.7111 24.8129 43.9517 66.891 22.3883L75.1058 16.5387L75.9508 19.6401C75.9508 19.6401 80.5061 16.3348 81.8562 9.21591L71.5607 13.1329L73.5302 14.8616C73.5302 14.8616 59.6926 24.0165 41.2394 26.7619C41.2394 26.7619 17.3859 31.8476 23.0117 20.8118Z" fill="#D7B322"/>
<path d="M59.2034 17.9458C59.2034 17.9458 43.0755 26.423 26.8746 24.7948C26.8746 24.7948 23.9489 15.3699 30.9248 7.57331C30.9248 7.57331 39.9243 -2.1904 54.4766 0.454414C54.4766 0.454414 59.2638 0.856447 66.0269 6.76062C66.0269 6.76062 68.7271 2.21763 60.2517 0.997165C60.2517 0.997165 67.7518 -0.154383 71.2779 3.84587C71.2779 3.84587 75.1789 14.0834 39.848 20.6624C39.8512 20.6595 47.6499 21.5411 59.2034 17.9458Z" fill="#1C3E91"/>
<path d="M29.1236 34.323C29.1236 34.323 23.7995 43.5095 39.1746 40.9996C39.1746 40.9996 49.6766 47.102 62.6533 38.9665C62.6533 38.9665 73.1553 32.9991 71.729 21.4722C71.729 21.4722 56.427 34.4235 38.05 36.8644C38.05 36.8644 47.5006 37.5421 56.0522 33.9497C56.0522 33.9497 51.0267 37.68 41.4268 38.0849C41.4268 38.0849 32.9896 40.0864 31.5252 35.1012L31.5665 34.2512L29.1236 34.323Z" fill="#D11945"/>
<path d="M35.2133 78.8196H31.6364L31.0709 81.2577H35.1593L34.8289 82.0819H29.8098L31.4458 75.1008H36.2838L36.0932 75.925H32.3289L31.8365 77.9984H35.4134L35.2133 78.8196Z" fill="#D7B322"/>
<path d="M40.5533 82.0819L39.1587 79.2705H39.146L36.5888 82.0819H35.3436L38.7013 78.4894L36.9859 75.098H38.1422L39.4573 77.7686H39.47L41.9764 75.098H43.1772L39.9116 78.5153L41.7191 82.079H40.5533V82.0819Z" fill="#D7B322"/>
<path d="M44.2064 75.1008H46.7128C48.263 75.1008 49.1049 75.8934 49.1049 76.976C49.1049 78.5066 47.8501 79.2533 46.087 79.2533H44.2986L43.641 82.0819H42.5673L44.2064 75.1008ZM44.4923 78.4435H46.068C47.2402 78.4435 47.9676 78.0299 47.9676 77.0335C47.9676 76.2552 47.4022 75.9106 46.4555 75.9106H45.0832L44.4923 78.4435Z" fill="#D7B322"/>
<path d="M56.7415 77.8892C56.7415 79.9482 55.4677 82.1824 52.6151 82.1824C50.6868 82.1824 49.6703 80.9992 49.6703 79.371C49.6703 77.3091 51.0363 75.0003 53.7586 75.0003C55.725 75.0003 56.7415 76.1633 56.7415 77.8892ZM50.798 79.3365C50.798 80.4996 51.4143 81.3726 52.7612 81.3726C54.7212 81.3726 55.6265 79.5261 55.6265 77.8691C55.6265 76.6458 55.0007 75.8073 53.692 75.8073C51.732 75.8101 50.798 77.7342 50.798 79.3365Z" fill="#D7B322"/>
<path d="M59.2384 79.0092L58.5268 82.0819H57.4499L59.0859 75.1008H61.748C63.1902 75.1008 63.9653 75.7728 63.9653 76.821C63.9653 77.8433 63.295 78.4607 62.2912 78.6703C62.7073 78.8168 63.3236 79.2159 63.0504 80.4019C62.863 81.2003 62.72 81.7832 62.7581 82.0847H61.7353C61.6971 81.7832 61.7765 81.2577 61.9894 80.4249C62.2117 79.4744 61.9227 79.012 60.8172 79.012H59.2384V79.0092ZM59.429 78.1994H60.9125C62.1006 78.1994 62.8534 77.8347 62.8534 76.9186C62.8534 76.238 62.3928 75.9078 61.5224 75.9078H59.9627L59.429 78.1994Z" fill="#D7B322"/>
<path d="M67.2499 75.925H64.877L65.0739 75.1008H70.8999L70.703 75.925H68.3237L66.891 82.0819H65.8077L67.2499 75.925Z" fill="#D7B322"/>
<path d="M7.63034 82.0819L26.5315 81.9986" stroke="#1C3E91" stroke-width="3" stroke-miterlimit="10"/>
<path d="M71.7322 81.3467L90.6333 81.2635" stroke="#D11945" stroke-width="3" stroke-miterlimit="10"/>
</svg>
