<?xml version="1.0" encoding="utf-8"?>
<!-- Generator: Adobe Illustrator 25.0.1, SVG Export Plug-In . SVG Version: 6.00 Build 0)  -->
<svg version="1.1" id="Calque_1" xmlns="http://www.w3.org/2000/svg" xmlns:xlink="http://www.w3.org/1999/xlink" x="0px" y="0px"
	 viewBox="0 0 1080 1080" style="enable-background:new 0 0 1080 1080;" xml:space="preserve">
<style type="text/css">
	.st0{display:none;}
	.st1{fill:#D7B322;}
	.st2{fill:#1C3E91;}
	.st3{fill:#D11945;}
	.st4{fill:none;stroke:#1C3E91;stroke-width:3;stroke-miterlimit:10;}
	.st5{fill:none;stroke:#D11945;stroke-width:3;stroke-miterlimit:10;}
	.st6{display:inline;}
</style>
<rect class="st0" width="1080" height="1080"/>
<g>
	<g>
		<g>
			<path d="M391.06,476.78H381v-5.87h27.24v5.87h-10.02v27.23h-7.16V476.78z"/>
			<path d="M435.44,489.74h-15.83v8.41h17.46l-0.85,5.87h-23.56v-33.1h23.47v5.87h-16.52v7.09h15.83V489.74z"/>
			<path d="M448.54,496.37l-2.58,7.64h-7.04l11.24-33.1h8.99l11.72,33.1h-7.52l-2.72-7.64H448.54z M459.09,490.5
				c-2.35-6.98-3.85-11.45-4.65-14.42h-0.05c-0.82,3.26-2.47,8.46-4.35,14.42H459.09z"/>
			<path d="M503.1,491.6c0-5.65,0.09-11.98,0.23-15.72h-0.23c-1.56,6.75-4.86,17.78-8.04,28.13h-6.09
				c-2.41-9.05-5.84-21.61-7.29-28.22h-0.22c0.28,3.88,0.42,10.69,0.42,16.37v11.85h-6.52v-33.1h10.65
				c2.58,8.65,5.47,19.5,6.47,24.43h0.05c0.81-4.35,4.45-15.95,7.21-24.43H510v33.1h-6.9V491.6z"/>
			<path d="M536.11,476.78h-10.06v-5.87h27.24v5.87h-10.02v27.23h-7.16V476.78z"/>
			<path d="M585.82,493.81c-1.33,6.17-5.99,10.67-14.27,10.67c-10.49,0-15.46-7.43-15.46-16.84c0-9.07,5.12-17.2,15.8-17.2
				c8.81,0,13.08,5.17,13.89,10.71h-7.16c-0.69-2.55-2.47-5.09-6.96-5.09c-5.9,0-8.18,5.31-8.18,11.33c0,5.59,1.98,11.49,8.37,11.49
				c4.67,0,6.14-3.13,6.77-5.06H585.82z"/>
			<path d="M591.9,470.92h7.16v12.91h13.32v-12.91h7.16v33.1h-7.16v-14.32h-13.32v14.32h-7.16V470.92z"/>
			<path d="M633.62,496.37l-2.58,7.64h-7.04l11.24-33.1h8.99l11.72,33.1h-7.52l-2.72-7.64H633.62z M644.17,490.5
				c-2.35-6.98-3.85-11.45-4.65-14.42h-0.05c-0.82,3.26-2.47,8.46-4.35,14.42H644.17z"/>
			<path d="M660.44,470.92h13.12c9.64,0,15.94,6.35,15.94,16.13c0,9.65-6.11,16.96-16.24,16.96h-12.82V470.92z M667.6,498.23h5.37
				c6.34,0,9.15-4.72,9.15-11.16c0-5.41-2.63-10.37-9.11-10.37h-5.41V498.23z"/>
		</g>
	</g>
	<g>
		<path class="st1" d="M453.44,335.7v-8.5c0,0-25.5,20.54-20.01,39.49c0,0,25.68,49.59,158.14-25.5l25.86-20.37l2.66,10.8
			c0,0,14.34-11.51,18.59-36.3l-32.41,13.64l6.2,6.02c0,0-43.56,31.88-101.65,41.44C510.82,356.42,435.73,374.13,453.44,335.7z"/>
		<path class="st2" d="M567.37,325.72c0,0-50.77,29.52-101.77,23.85c0,0-9.21-32.82,12.75-59.97c0,0,28.33-34,74.14-24.79
			c0,0,15.07,1.4,36.36,21.96c0,0,8.5-15.82-18.18-20.07c0,0,23.61-4.01,34.71,9.92c0,0,12.28,35.65-98.94,58.56
			C506.45,335.17,531,338.24,567.37,325.72z"/>
		<path class="st3" d="M472.68,382.75c0,0-16.76,31.99,31.64,23.25c0,0,33.06,21.25,73.91-7.08c0,0,33.06-20.78,28.57-60.92
			c0,0-48.17,45.1-106.02,53.6c0,0,29.75,2.36,56.67-10.15c0,0-15.82,12.99-46.04,14.4c0,0-26.56,6.97-31.17-10.39l0.13-2.96
			L472.68,382.75z"/>
	</g>
	<g>
		<g>
			<g>
				<path class="st1" d="M491.85,537.7h-11.26l-1.78,8.49h12.87l-1.04,2.87h-15.8l5.15-24.31h15.23l-0.6,2.87h-11.85l-1.55,7.22
					h11.26L491.85,537.7z"/>
				<path class="st1" d="M508.66,549.06l-4.39-9.79h-0.04l-8.05,9.79h-3.92l10.57-12.51l-5.4-11.81h3.64l4.14,9.3h0.04l7.89-9.3
					h3.78l-10.28,11.9l5.69,12.41H508.66z"/>
				<path class="st1" d="M520.16,524.75h7.89c4.88,0,7.53,2.76,7.53,6.53c0,5.33-3.95,7.93-9.5,7.93h-5.63l-2.07,9.85h-3.38
					L520.16,524.75z M521.06,536.39h4.96c3.69,0,5.98-1.44,5.98-4.91c0-2.71-1.78-3.91-4.76-3.91h-4.32L521.06,536.39z"/>
				<path class="st1" d="M559.62,534.46c0,7.17-4.01,14.95-12.99,14.95c-6.07,0-9.27-4.12-9.27-9.79c0-7.18,4.3-15.22,12.87-15.22
					C556.42,524.4,559.62,528.45,559.62,534.46z M540.91,539.5c0,4.05,1.94,7.09,6.18,7.09c6.17,0,9.02-6.43,9.02-12.2
					c0-4.26-1.97-7.18-6.09-7.18C543.85,527.22,540.91,533.92,540.91,539.5z"/>
				<path class="st1" d="M567.48,538.36l-2.24,10.7h-3.39l5.15-24.31h8.38c4.54,0,6.98,2.34,6.98,5.99c0,3.56-2.11,5.71-5.27,6.44
					c1.31,0.51,3.25,1.9,2.39,6.03c-0.59,2.78-1.04,4.81-0.92,5.86h-3.22c-0.12-1.05,0.13-2.88,0.8-5.78
					c0.7-3.31-0.21-4.92-3.69-4.92H567.48z M568.08,535.54h4.67c3.74,0,6.11-1.27,6.11-4.46c0-2.37-1.45-3.52-4.19-3.52h-4.91
					L568.08,535.54z"/>
				<path class="st1" d="M592.7,527.62h-7.47l0.62-2.87h18.34l-0.62,2.87h-7.49l-4.51,21.44h-3.41L592.7,527.62z"/>
			</g>
		</g>
		<line class="st4" x1="405.02" y1="549.06" x2="464.52" y2="548.77"/>
		<line class="st5" x1="606.81" y1="546.5" x2="666.31" y2="546.21"/>
	</g>
</g>
<g class="st0">
	<g class="st6">
		<g>
			<path d="M548.37,90.52h-5.1v-2.97h13.81v2.97H552v13.81h-3.63V90.52z"/>
			<path d="M570.88,97.09h-8.02v4.26h8.85l-0.43,2.97h-11.94V87.55h11.9v2.97h-8.38v3.6h8.02V97.09z"/>
			<path d="M577.53,100.45l-1.31,3.88h-3.57l5.7-16.78h4.56l5.94,16.78h-3.81l-1.38-3.88H577.53z M582.88,97.48
				c-1.19-3.54-1.95-5.8-2.36-7.31h-0.02c-0.41,1.65-1.25,4.29-2.21,7.31H582.88z"/>
			<path d="M605.19,98.03c0-2.86,0.05-6.07,0.12-7.97h-0.12c-0.79,3.42-2.47,9.01-4.08,14.26h-3.09
				c-1.22-4.59-2.96-10.96-3.69-14.31h-0.11c0.14,1.97,0.21,5.42,0.21,8.3v6.01h-3.31V87.55h5.4c1.31,4.38,2.78,9.88,3.28,12.38
				h0.03c0.41-2.21,2.25-8.09,3.65-12.38h5.2v16.78h-3.5V98.03z"/>
			<path d="M621.94,90.52h-5.1v-2.97h13.81v2.97h-5.08v13.81h-3.63V90.52z"/>
			<path d="M647.15,99.16c-0.67,3.13-3.03,5.41-7.24,5.41c-5.32,0-7.84-3.77-7.84-8.54c0-4.6,2.6-8.72,8.01-8.72
				c4.47,0,6.63,2.62,7.04,5.43h-3.63c-0.35-1.29-1.25-2.58-3.53-2.58c-2.99,0-4.15,2.69-4.15,5.75c0,2.84,1,5.83,4.25,5.83
				c2.37,0,3.11-1.59,3.43-2.56H647.15z"/>
			<path d="M650.24,87.55h3.63v6.54h6.75v-6.54h3.63v16.78h-3.63v-7.26h-6.75v7.26h-3.63V87.55z"/>
			<path d="M671.4,100.45l-1.31,3.88h-3.57l5.7-16.78h4.56l5.94,16.78h-3.81l-1.38-3.88H671.4z M676.75,97.48
				c-1.19-3.54-1.95-5.8-2.36-7.31h-0.02c-0.41,1.65-1.25,4.29-2.21,7.31H676.75z"/>
			<path d="M685,87.55h6.65c4.89,0,8.08,3.22,8.08,8.18c0,4.89-3.1,8.6-8.23,8.6H685V87.55z M688.63,101.4h2.72
				c3.22,0,4.64-2.39,4.64-5.66c0-2.74-1.33-5.26-4.62-5.26h-2.74V101.4z"/>
			<path d="M708.58,95.9v-4.06h3.63v4.06H708.58z M708.58,104.33v-4.06h3.63v4.06H708.58z"/>
		</g>
	</g>
	<g class="st6">
		<g>
			<path d="M591.76,144.48h3.49v3.11h-3.49V144.48z M591.76,149.65h3.49v12.6h-3.49V149.65z"/>
			<path d="M598.4,152.82c0-1.07,0-2.24-0.02-3.17h3.38c0.07,0.32,0.12,1.2,0.13,1.6c0.43-0.79,1.45-1.9,3.66-1.9
				c2.53,0,4.17,1.71,4.17,4.88v8.01h-3.49v-7.63c0-1.42-0.47-2.44-2.01-2.44c-1.48,0-2.33,0.82-2.33,3.05v7.02h-3.49V152.82z"/>
			<path d="M611.59,149.65h1.94v-3.41h3.49v3.41h2.47v2.62h-2.47v6.22c0,0.96,0.29,1.33,1.33,1.33c0.19,0,0.53,0,0.79-0.04v2.4
				c-0.69,0.23-1.64,0.24-2.34,0.24c-2.46,0-3.27-1.31-3.27-3.52v-6.63h-1.94V149.65z"/>
			<path d="M624.43,156.7c0,1.58,0.79,3.12,2.53,3.12c1.45,0,1.87-0.58,2.2-1.34h3.49c-0.45,1.54-1.82,4.07-5.78,4.07
				c-4.15,0-5.95-3.1-5.95-6.41c0-3.95,2.03-6.77,6.07-6.77c4.33,0,5.8,3.13,5.8,6.27c0,0.43,0,0.7-0.05,1.06H624.43z
				 M629.29,154.55c-0.02-1.47-0.61-2.7-2.31-2.7c-1.67,0-2.34,1.15-2.48,2.7H629.29z"/>
			<path d="M635.16,153.07c0-1.25,0-2.36-0.02-3.42h3.42c0.05,0.28,0.09,1.53,0.09,2.21c0.56-1.44,1.9-2.49,4.04-2.5v3.33
				c-2.53-0.07-4.04,0.62-4.04,4.07v5.49h-3.49V153.07z"/>
			<path d="M644.75,162.25v-17.77h3.49v17.77H644.75z"/>
			<path d="M651.38,144.48h3.49v3.11h-3.49V144.48z M651.38,149.65h3.49v12.6h-3.49V149.65z"/>
			<path d="M669.46,160.71c0,4.04-1.49,6.6-6.26,6.6c-4.6,0-5.51-2.57-5.63-3.99h3.56c0.25,0.87,0.88,1.45,2.23,1.45
				c2.26,0,2.69-1.38,2.69-3.85v-0.6c-0.66,1.09-1.7,1.77-3.55,1.77c-3.32,0-5.21-2.72-5.21-6.11c0-3.94,2.36-6.63,5.51-6.63
				c2.16,0,3.06,1.02,3.25,1.61c0.02-0.34,0.11-1.11,0.14-1.31h3.31c-0.02,1.12-0.03,2.4-0.03,3.61V160.71z M660.86,155.84
				c0,2.17,1.08,3.45,2.63,3.45c2.1,0,2.66-1.44,2.66-3.56c0-2.12-0.37-3.58-2.59-3.58C662.05,152.15,660.86,153.32,660.86,155.84z"
				/>
			<path d="M672.58,152.82c0-1.07,0-2.24-0.02-3.17h3.38c0.07,0.32,0.12,1.2,0.13,1.6c0.43-0.79,1.45-1.9,3.66-1.9
				c2.53,0,4.17,1.71,4.17,4.88v8.01h-3.49v-7.63c0-1.42-0.47-2.44-2.01-2.44c-1.48,0-2.33,0.82-2.33,3.05v7.02h-3.49V152.82z"/>
			<path d="M689.76,156.7c0,1.58,0.79,3.12,2.53,3.12c1.45,0,1.87-0.58,2.2-1.34h3.49c-0.45,1.54-1.82,4.07-5.78,4.07
				c-4.15,0-5.95-3.1-5.95-6.41c0-3.95,2.03-6.77,6.07-6.77c4.33,0,5.8,3.13,5.8,6.27c0,0.43,0,0.7-0.05,1.06H689.76z
				 M694.63,154.55c-0.02-1.47-0.61-2.7-2.31-2.7c-1.67,0-2.34,1.15-2.48,2.7H694.63z"/>
			<path d="M706.6,153.82v-4.06h3.63v4.06H706.6z M706.6,162.25v-4.06h3.63v4.06H706.6z"/>
			<path d="M750.81,162.25v-4.12h-7.53v-1.93l7.29-9.96h2.28v10.06h2.07l-0.23,1.83h-1.84v4.12H750.81z M750.81,152.25
				c0-1.24,0.02-2.82,0.06-3.86c-0.65,1.24-3.77,5.5-5.48,7.91h5.43V152.25z"/>
			<path d="M765.22,149.72c-0.31-1.16-1.06-2.03-2.7-2.03c-2.7,0-3.58,2.53-3.66,5.91c0.65-1.13,1.85-2.23,4.06-2.23
				c3.1,0,4.91,2.25,4.91,5.34c0,3.15-1.85,5.83-5.41,5.83c-4.41,0-5.71-3.58-5.71-8.09c0-4.41,1.44-8.51,5.88-8.51
				c3.26,0,4.53,2.13,4.73,3.78H765.22z M765.64,156.87c0-1.79-0.69-3.71-3.15-3.71c-1.98,0-3.38,1.27-3.38,3.69
				c0,1.32,0.67,3.89,3.31,3.89C764.73,160.74,765.64,158.87,765.64,156.87z"/>
			<path d="M772.85,160.72v6.38h-2.12v-14.18c0-1.01,0-2.05-0.02-3.01h2.07c0.05,0.41,0.07,1.16,0.07,1.94
				c0.67-1.24,1.92-2.23,4.03-2.23c2.85,0,4.93,2.39,4.93,6.15c0,4.41-2.38,6.78-5.37,6.78C774.44,162.54,773.4,161.7,772.85,160.72
				z M779.61,155.84c0-2.62-1.19-4.41-3.3-4.41c-2.56,0-3.57,1.62-3.57,4.62c0,2.92,0.83,4.69,3.41,4.69
				C778.41,160.74,779.61,158.88,779.61,155.84z"/>
			<path d="M783.02,149.91h2.13v-3.64h2.13v3.64H790v1.74h-2.72v7.23c0,1.2,0.29,1.81,1.41,1.81c0.3,0,0.74-0.02,1.08-0.1v1.61
				c-0.53,0.2-1.26,0.23-1.84,0.23c-1.92,0-2.77-0.99-2.77-3.04v-7.73h-2.13V149.91z"/>
		</g>
	</g>
	<g class="st6">
		<g>
			<path d="M742.96,101.14l-1.13,3.19h-1.64l3.92-11.12h2.04l4.09,11.12h-1.75l-1.17-3.19H742.96z M746.92,99.74
				c-1.01-2.81-1.58-4.36-1.82-5.23h-0.02c-0.27,0.97-0.91,2.83-1.72,5.23H746.92z"/>
			<path d="M758.25,101.81c-0.33,1.39-1.28,2.71-3.43,2.71c-2.3,0-3.67-1.64-3.67-4.22c0-2.32,1.34-4.31,3.78-4.31
				c2.43,0,3.23,1.73,3.32,2.76h-1.55c-0.19-0.8-0.68-1.47-1.8-1.47c-1.36,0-2.13,1.17-2.13,2.97c0,1.83,0.76,2.99,2.09,2.99
				c0.97,0,1.53-0.53,1.84-1.43H758.25z"/>
			<path d="M766.56,101.95c0,0.79,0.01,1.84,0.02,2.37h-1.53c-0.03-0.22-0.05-0.7-0.05-1.17c-0.42,0.89-1.19,1.36-2.42,1.36
				c-1.43,0-2.7-0.75-2.7-2.99v-5.35h1.56v5.02c0,1.04,0.32,1.98,1.6,1.98c1.41,0,1.96-0.78,1.96-2.73v-4.27h1.57V101.95z"/>
			<path d="M768.89,98.28c0-0.7,0-1.43-0.02-2.1h1.51c0.02,0.24,0.06,0.81,0.06,1.2c0.38-0.71,1.08-1.39,2.35-1.39
				c1.16,0,1.92,0.59,2.23,1.42c0.44-0.75,1.2-1.42,2.58-1.42c1.34,0,2.57,0.8,2.57,2.99v5.35h-1.54v-5.16
				c0-0.91-0.33-1.85-1.53-1.85c-1.25,0-1.79,0.93-1.79,2.34v4.68h-1.54v-5.11c0-1.01-0.28-1.89-1.5-1.89
				c-1.23,0-1.83,0.96-1.83,2.49v4.52h-1.56V98.28z"/>
			<path d="M782.5,92.59h1.57v1.81h-1.57V92.59z M782.5,96.18h1.57v8.15h-1.57V96.18z"/>
			<path d="M786.41,98.23c0-0.7,0-1.43-0.02-2.05h1.53c0.04,0.23,0.06,1.03,0.06,1.28c0.32-0.66,0.98-1.47,2.53-1.47
				c1.55,0,2.72,0.97,2.72,3.11v5.23h-1.57v-5.04c0-1.17-0.45-1.97-1.64-1.97c-1.42,0-2.03,1.05-2.03,2.65v4.36h-1.57V98.23z"/>
			<path d="M800.25,96.18c1.03,3.22,1.81,5.7,2.04,6.71h0.02c0.21-0.99,1.06-3.44,2.18-6.71h1.59l-2.97,8.15h-1.71l-2.83-8.15
				H800.25z"/>
			<path d="M813.62,102.49c0,0.75,0.06,1.61,0.11,1.84h-1.5c-0.06-0.18-0.11-0.57-0.13-1.01c-0.29,0.53-0.92,1.21-2.47,1.21
				c-1.93,0-2.75-1.26-2.75-2.5c0-1.83,1.44-2.66,3.86-2.66c0.53,0,1.05,0,1.35,0V98.7c0-0.69-0.23-1.51-1.66-1.51
				c-1.28,0-1.51,0.62-1.65,1.25h-1.51c0.11-1.19,0.84-2.46,3.21-2.45c2.03,0.01,3.15,0.83,3.15,2.7V102.49z M812.08,100.41
				c-0.25,0-0.83,0-1.24,0c-1.57,0-2.37,0.44-2.37,1.52c0,0.8,0.54,1.39,1.51,1.39c1.86,0,2.11-1.26,2.11-2.66V100.41z"/>
			<path d="M815.96,98.39c0-1.08-0.01-1.73-0.02-2.21h1.54c0.02,0.22,0.05,0.89,0.05,1.62c0.41-1.07,1.37-1.77,2.72-1.81v1.55
				c-1.67,0.03-2.72,0.82-2.72,2.91v3.88h-1.57V98.39z"/>
			<path d="M821.72,92.59h1.57v1.81h-1.57V92.59z M821.72,96.18h1.57v8.15h-1.57V96.18z"/>
			<path d="M831.82,102.49c0,0.75,0.06,1.61,0.11,1.84h-1.5c-0.06-0.18-0.11-0.57-0.13-1.01c-0.29,0.53-0.92,1.21-2.47,1.21
				c-1.93,0-2.75-1.26-2.75-2.5c0-1.83,1.44-2.66,3.86-2.66c0.53,0,1.05,0,1.35,0V98.7c0-0.69-0.23-1.51-1.66-1.51
				c-1.28,0-1.51,0.62-1.65,1.25h-1.51c0.11-1.19,0.84-2.46,3.21-2.45c2.03,0.01,3.15,0.83,3.15,2.7V102.49z M830.29,100.41
				c-0.25,0-0.83,0-1.24,0c-1.57,0-2.37,0.44-2.37,1.52c0,0.8,0.54,1.39,1.51,1.39c1.86,0,2.11-1.26,2.11-2.66V100.41z"/>
			<path d="M834.17,92.59h1.57v4.69c0.36-0.66,1.1-1.3,2.55-1.3c2.08,0,3.33,1.71,3.33,4.1c0,2.45-1.23,4.43-3.55,4.43
				c-1.29,0-1.94-0.46-2.35-1.21c0,0.39-0.03,0.8-0.06,1.02h-1.51c0.02-0.91,0.02-1.82,0.02-2.72V92.59z M840,100.12
				c0-1.68-0.75-2.82-2.12-2.82c-1.64,0-2.23,1.1-2.23,2.98c0,1.63,0.52,2.93,2.17,2.93C839.21,103.21,840,102.02,840,100.12z"/>
			<path d="M843.38,104.33V92.59h1.57v11.74H843.38z"/>
			<path d="M848.31,100.55c0.01,1.53,0.78,2.68,2.11,2.68c1.22,0,1.61-0.61,1.86-1.18h1.58c-0.31,1.03-1.19,2.48-3.49,2.48
				c-2.59,0-3.65-2.07-3.65-4.17c0-2.45,1.24-4.36,3.74-4.36c2.66,0,3.54,2.09,3.54,3.89c0,0.25,0,0.46-0.02,0.68H848.31z
				 M852.42,99.49c-0.02-1.26-0.63-2.29-1.97-2.29c-1.37,0-1.96,0.95-2.09,2.29H852.42z"/>
			<path d="M866.32,101.81c-0.33,1.39-1.28,2.71-3.43,2.71c-2.3,0-3.67-1.64-3.67-4.22c0-2.32,1.34-4.31,3.78-4.31
				c2.43,0,3.23,1.73,3.32,2.76h-1.55c-0.19-0.8-0.68-1.47-1.8-1.47c-1.36,0-2.13,1.17-2.13,2.97c0,1.83,0.76,2.99,2.09,2.99
				c0.97,0,1.53-0.53,1.84-1.43H866.32z"/>
			<path d="M875.07,100.24c0,2.37-1.37,4.28-3.88,4.28c-2.37,0-3.8-1.81-3.8-4.25c0-2.43,1.41-4.28,3.89-4.28
				C873.58,95.99,875.07,97.68,875.07,100.24z M869.01,100.25c0,1.74,0.85,2.98,2.24,2.98c1.42,0,2.21-1.18,2.21-2.97
				c0-1.81-0.79-2.98-2.24-2.98C869.79,97.28,869.01,98.42,869.01,100.25z"/>
			<path d="M876.84,98.23c0-0.7,0-1.43-0.02-2.05h1.53c0.04,0.23,0.06,1.03,0.06,1.28c0.32-0.66,0.98-1.47,2.53-1.47
				c1.55,0,2.72,0.97,2.72,3.11v5.23h-1.57v-5.04c0-1.17-0.45-1.97-1.64-1.97c-1.42,0-2.03,1.05-2.03,2.65v4.36h-1.57V98.23z"/>
			<path d="M892.53,101.81c-0.33,1.39-1.28,2.71-3.43,2.71c-2.3,0-3.67-1.64-3.67-4.22c0-2.32,1.34-4.31,3.78-4.31
				c2.43,0,3.23,1.73,3.32,2.76h-1.55c-0.19-0.8-0.68-1.47-1.8-1.47c-1.36,0-2.13,1.17-2.13,2.97c0,1.83,0.76,2.99,2.09,2.99
				c0.97,0,1.53-0.53,1.84-1.43H892.53z"/>
			<path d="M895.19,100.55c0.01,1.53,0.78,2.68,2.11,2.68c1.22,0,1.61-0.61,1.86-1.18h1.58c-0.31,1.03-1.19,2.48-3.49,2.48
				c-2.59,0-3.65-2.07-3.65-4.17c0-2.45,1.24-4.36,3.74-4.36c2.66,0,3.54,2.09,3.54,3.89c0,0.25,0,0.46-0.02,0.68H895.19z
				 M899.3,99.49c-0.02-1.26-0.63-2.29-1.97-2.29c-1.37,0-1.96,0.95-2.09,2.29H899.3z"/>
			<path d="M904.19,103.38v4.14h-1.56v-9.35c0-0.66,0-1.35-0.02-1.98h1.53c0.03,0.26,0.05,0.76,0.05,1.23
				c0.42-0.78,1.23-1.42,2.61-1.42c1.88,0,3.25,1.57,3.25,4.06c0,2.9-1.57,4.47-3.55,4.47
				C905.22,104.52,904.55,103.99,904.19,103.38z M908.44,100.11c0-1.68-0.75-2.8-2.08-2.8c-1.61,0-2.24,1.02-2.24,2.94
				c0,1.85,0.52,2.97,2.13,2.97C907.68,103.21,908.44,102.05,908.44,100.11z"/>
			<path d="M910.83,96.18h1.38v-2.37h1.57v2.37h1.76v1.25h-1.76v4.63c0,0.76,0.19,1.13,0.92,1.13c0.18,0,0.46-0.01,0.67-0.06v1.16
				c-0.37,0.13-0.87,0.15-1.28,0.15c-1.33,0-1.88-0.69-1.88-2.06v-4.94h-1.38V96.18z"/>
			<path d="M921.35,93.21h4.38c2.41,0,3.49,1.27,3.49,2.79c0,1.28-0.73,2.12-1.56,2.42c0.77,0.25,1.92,1.04,1.92,2.64
				c0,2.06-1.58,3.27-3.74,3.27h-4.49V93.21z M925.44,97.79c1.52,0,2.12-0.61,2.12-1.64c0-0.95-0.69-1.6-1.92-1.6h-2.68v3.24H925.44
				z M922.97,102.99h2.64c1.38,0,2.28-0.63,2.28-1.95c0-1.15-0.74-1.91-2.51-1.91h-2.41V102.99z"/>
			<path d="M938.62,100.24c0,2.37-1.37,4.28-3.88,4.28c-2.37,0-3.8-1.81-3.8-4.25c0-2.43,1.41-4.28,3.89-4.28
				C937.13,95.99,938.62,97.68,938.62,100.24z M932.56,100.25c0,1.74,0.85,2.98,2.24,2.98c1.42,0,2.21-1.18,2.21-2.97
				c0-1.81-0.79-2.98-2.24-2.98C933.34,97.28,932.56,98.42,932.56,100.25z"/>
			<path d="M940.39,104.33V92.59h1.57v11.74H940.39z"/>
			<path d="M951.21,92.59v9.45c0,0.76,0,1.51,0.02,2.29h-1.51c-0.04-0.22-0.07-0.81-0.08-1.1c-0.4,0.81-1.2,1.29-2.51,1.29
				c-2.09,0-3.38-1.69-3.38-4.18c0-2.51,1.39-4.35,3.65-4.35c1.39,0,2.03,0.55,2.24,0.99v-4.39H951.21z M945.37,100.29
				c0,1.89,0.87,2.92,2.12,2.92c1.84,0,2.21-1.38,2.21-3.05c0-1.73-0.34-2.86-2.11-2.86C946.2,97.3,945.37,98.4,945.37,100.29z"/>
			<path d="M961.85,104.33v-2.65h-4.91v-1.41l4.72-6.48h1.69v6.56h1.34l-0.16,1.33h-1.18v2.65H961.85z M961.85,97.84
				c0-0.88,0.01-1.84,0.04-2.52c-0.42,0.83-2.35,3.48-3.45,5.03h3.41V97.84z"/>
			<path d="M965.77,101.34c0-1.46,0.99-2.31,1.87-2.66c-0.9-0.46-1.43-1.17-1.43-2.23c0-1.66,1.18-2.84,3.39-2.84
				c2.02,0,3.27,1.16,3.27,2.82c0,1.15-0.62,1.85-1.44,2.18c0.95,0.32,1.85,1.29,1.85,2.69c0,2.04-1.59,3.23-3.82,3.23
				C967.39,104.52,965.77,103.32,965.77,101.34z M971.68,101.27c0-1.28-0.83-1.94-2.15-1.94c-1.47,0-2.15,0.83-2.15,1.93
				c0,1.13,0.8,1.97,2.16,1.97C970.79,103.24,971.68,102.58,971.68,101.27z M967.75,96.46c0,0.86,0.56,1.55,1.82,1.55
				c1.2,0,1.75-0.56,1.75-1.52c0-0.9-0.57-1.62-1.78-1.62C968.29,94.88,967.75,95.52,967.75,96.46z"/>
			<path d="M980.74,103.38v4.14h-1.56v-9.35c0-0.66,0-1.35-0.02-1.98h1.53c0.03,0.26,0.05,0.76,0.05,1.23
				c0.42-0.78,1.23-1.42,2.61-1.42c1.88,0,3.25,1.57,3.25,4.06c0,2.9-1.57,4.47-3.55,4.47
				C981.76,104.52,981.09,103.99,980.74,103.38z M984.98,100.11c0-1.68-0.75-2.8-2.08-2.8c-1.61,0-2.24,1.02-2.24,2.94
				c0,1.85,0.52,2.97,2.13,2.97C984.23,103.21,984.98,102.05,984.98,100.11z"/>
			<path d="M987.37,96.18h1.38v-2.37h1.57v2.37h1.76v1.25h-1.76v4.63c0,0.76,0.19,1.13,0.92,1.13c0.18,0,0.46-0.01,0.67-0.06v1.16
				c-0.37,0.13-0.87,0.15-1.28,0.15c-1.33,0-1.88-0.69-1.88-2.06v-4.94h-1.38V96.18z"/>
		</g>
	</g>
	<g class="st6">
		<g>
			<path d="M744.26,125.87l-0.99,2.79h-1.43l3.43-9.73h1.79l3.58,9.73h-1.53l-1.03-2.79H744.26z M747.72,124.65
				c-0.88-2.46-1.38-3.81-1.59-4.58h-0.01c-0.24,0.85-0.79,2.47-1.5,4.58H747.72z"/>
			<path d="M757.64,126.46c-0.29,1.22-1.12,2.37-3,2.37c-2.01,0-3.21-1.44-3.21-3.69c0-2.03,1.17-3.77,3.3-3.77
				c2.12,0,2.83,1.52,2.91,2.41h-1.36c-0.17-0.7-0.6-1.28-1.58-1.28c-1.19,0-1.87,1.03-1.87,2.6c0,1.6,0.66,2.62,1.83,2.62
				c0.85,0,1.34-0.46,1.61-1.25H757.64z"/>
			<path d="M764.91,126.59c0,0.69,0.01,1.61,0.01,2.08h-1.34c-0.03-0.19-0.04-0.61-0.05-1.02c-0.36,0.78-1.04,1.19-2.12,1.19
				c-1.25,0-2.36-0.65-2.36-2.62v-4.68h1.37v4.39c0,0.91,0.28,1.73,1.4,1.73c1.23,0,1.71-0.68,1.71-2.39v-3.73h1.38V126.59z"/>
			<path d="M766.94,123.37c0-0.61,0-1.25-0.01-1.84h1.32c0.02,0.21,0.05,0.71,0.05,1.05c0.33-0.62,0.95-1.22,2.06-1.22
				c1.01,0,1.68,0.52,1.95,1.24c0.39-0.66,1.05-1.24,2.26-1.24c1.17,0,2.25,0.7,2.25,2.61v4.69h-1.35v-4.52
				c0-0.79-0.29-1.62-1.34-1.62c-1.1,0-1.57,0.81-1.57,2.04v4.09h-1.35v-4.47c0-0.88-0.24-1.66-1.31-1.66c-1.08,0-1.6,0.84-1.6,2.17
				v3.95h-1.36V123.37z"/>
			<path d="M778.86,118.39h1.38v1.58h-1.38V118.39z M778.86,121.53h1.38v7.13h-1.38V121.53z"/>
			<path d="M782.28,123.33c0-0.62,0-1.25-0.01-1.8h1.34c0.03,0.21,0.05,0.91,0.05,1.12c0.28-0.58,0.86-1.29,2.21-1.29
				c1.36,0,2.38,0.85,2.38,2.72v4.58h-1.38v-4.41c0-1.02-0.39-1.72-1.44-1.72c-1.25,0-1.78,0.92-1.78,2.31v3.81h-1.38V123.33z"/>
			<path d="M794.39,121.53c0.91,2.82,1.58,4.99,1.78,5.87h0.01c0.18-0.87,0.93-3.01,1.91-5.87h1.39l-2.6,7.13h-1.5l-2.47-7.13
				H794.39z"/>
			<path d="M806.08,127.05c0,0.65,0.06,1.41,0.1,1.61h-1.32c-0.06-0.16-0.1-0.5-0.11-0.89c-0.25,0.46-0.8,1.06-2.16,1.06
				c-1.69,0-2.41-1.1-2.41-2.19c0-1.6,1.26-2.33,3.37-2.33c0.47,0,0.92,0,1.18,0v-0.57c0-0.6-0.2-1.32-1.45-1.32
				c-1.12,0-1.32,0.55-1.44,1.09h-1.32c0.1-1.04,0.74-2.15,2.81-2.15c1.78,0.01,2.75,0.72,2.75,2.36V127.05z M804.74,125.23
				c-0.21,0-0.73,0-1.09,0c-1.38,0-2.08,0.39-2.08,1.33c0,0.7,0.47,1.22,1.32,1.22c1.63,0,1.84-1.1,1.84-2.33V125.23z"/>
			<path d="M808.13,123.47c0-0.94-0.01-1.52-0.01-1.94h1.35c0.02,0.19,0.04,0.78,0.04,1.42c0.36-0.94,1.19-1.55,2.38-1.58v1.35
				c-1.46,0.03-2.38,0.72-2.38,2.55v3.39h-1.38V123.47z"/>
			<path d="M813.17,118.39h1.38v1.58h-1.38V118.39z M813.17,121.53h1.38v7.13h-1.38V121.53z"/>
			<path d="M822.01,127.05c0,0.65,0.06,1.41,0.1,1.61h-1.32c-0.06-0.16-0.1-0.5-0.11-0.89c-0.25,0.46-0.8,1.06-2.16,1.06
				c-1.69,0-2.41-1.1-2.41-2.19c0-1.6,1.26-2.33,3.37-2.33c0.47,0,0.92,0,1.18,0v-0.57c0-0.6-0.2-1.32-1.45-1.32
				c-1.12,0-1.32,0.55-1.44,1.09h-1.32c0.1-1.04,0.74-2.15,2.81-2.15c1.78,0.01,2.75,0.72,2.75,2.36V127.05z M820.67,125.23
				c-0.21,0-0.73,0-1.09,0c-1.38,0-2.08,0.39-2.08,1.33c0,0.7,0.47,1.22,1.32,1.22c1.63,0,1.84-1.1,1.84-2.33V125.23z"/>
			<path d="M824.06,118.39h1.38v4.11c0.32-0.58,0.96-1.13,2.23-1.13c1.82,0,2.92,1.5,2.92,3.59c0,2.14-1.08,3.88-3.1,3.88
				c-1.12,0-1.7-0.4-2.05-1.06c0,0.34-0.03,0.7-0.05,0.89h-1.32c0.01-0.79,0.01-1.59,0.01-2.38V118.39z M829.17,124.99
				c0-1.47-0.65-2.47-1.86-2.47c-1.44,0-1.95,0.96-1.95,2.61c0,1.43,0.45,2.56,1.89,2.56C828.47,127.69,829.17,126.65,829.17,124.99
				z"/>
			<path d="M832.12,128.67v-10.27h1.38v10.27H832.12z"/>
			<path d="M836.44,125.36c0.01,1.34,0.68,2.34,1.85,2.34c1.07,0,1.41-0.53,1.63-1.04h1.38c-0.28,0.91-1.04,2.17-3.05,2.17
				c-2.26,0-3.2-1.81-3.2-3.65c0-2.14,1.08-3.82,3.28-3.82c2.33,0,3.1,1.83,3.1,3.4c0,0.22,0,0.4-0.02,0.59H836.44z M840.03,124.43
				c-0.01-1.11-0.55-2-1.72-2c-1.19,0-1.71,0.83-1.83,2H840.03z"/>
			<path d="M852.2,126.46c-0.29,1.22-1.12,2.37-3,2.37c-2.01,0-3.21-1.44-3.21-3.69c0-2.03,1.17-3.77,3.3-3.77
				c2.12,0,2.83,1.52,2.91,2.41h-1.36c-0.17-0.7-0.6-1.28-1.58-1.28c-1.19,0-1.87,1.03-1.87,2.6c0,1.6,0.66,2.62,1.83,2.62
				c0.85,0,1.34-0.46,1.61-1.25H852.2z"/>
			<path d="M859.86,125.09c0,2.07-1.2,3.75-3.39,3.75c-2.08,0-3.32-1.58-3.32-3.72c0-2.12,1.23-3.75,3.41-3.75
				C858.55,121.37,859.86,122.85,859.86,125.09z M854.55,125.1c0,1.53,0.74,2.6,1.96,2.6c1.24,0,1.93-1.03,1.93-2.6
				c0-1.58-0.69-2.61-1.96-2.61C855.23,122.5,854.55,123.5,854.55,125.1z"/>
			<path d="M861.4,123.33c0-0.62,0-1.25-0.01-1.8h1.34c0.03,0.21,0.05,0.91,0.05,1.12c0.28-0.58,0.86-1.29,2.21-1.29
				c1.36,0,2.38,0.85,2.38,2.72v4.58h-1.38v-4.41c0-1.02-0.39-1.72-1.44-1.72c-1.25,0-1.78,0.92-1.78,2.31v3.81h-1.38V123.33z"/>
			<path d="M875.13,126.46c-0.29,1.22-1.12,2.37-3,2.37c-2.01,0-3.21-1.44-3.21-3.69c0-2.03,1.17-3.77,3.3-3.77
				c2.12,0,2.83,1.52,2.91,2.41h-1.36c-0.17-0.7-0.6-1.28-1.58-1.28c-1.19,0-1.87,1.03-1.87,2.6c0,1.6,0.66,2.62,1.83,2.62
				c0.85,0,1.34-0.46,1.61-1.25H875.13z"/>
			<path d="M877.46,125.36c0.01,1.34,0.68,2.34,1.85,2.34c1.07,0,1.41-0.53,1.63-1.04h1.38c-0.28,0.91-1.04,2.17-3.05,2.17
				c-2.26,0-3.2-1.81-3.2-3.65c0-2.14,1.08-3.82,3.28-3.82c2.33,0,3.1,1.83,3.1,3.4c0,0.22,0,0.4-0.02,0.59H877.46z M881.05,124.43
				c-0.01-1.11-0.55-2-1.72-2c-1.19,0-1.71,0.83-1.83,2H881.05z"/>
			<path d="M885.33,127.83v3.62h-1.37v-8.18c0-0.58,0-1.18-0.01-1.74h1.34c0.03,0.23,0.05,0.66,0.05,1.08
				c0.37-0.68,1.08-1.24,2.28-1.24c1.64,0,2.85,1.37,2.85,3.55c0,2.54-1.38,3.92-3.1,3.92
				C886.23,128.83,885.65,128.37,885.33,127.83z M889.05,124.97c0-1.47-0.66-2.45-1.82-2.45c-1.41,0-1.96,0.89-1.96,2.57
				c0,1.62,0.46,2.6,1.86,2.6C888.39,127.69,889.05,126.67,889.05,124.97z"/>
			<path d="M891.14,121.53h1.21v-2.07h1.38v2.07h1.54v1.1h-1.54v4.05c0,0.66,0.17,0.99,0.8,0.99c0.16,0,0.4-0.01,0.59-0.05v1.01
				c-0.32,0.12-0.77,0.13-1.12,0.13c-1.16,0-1.65-0.61-1.65-1.8v-4.33h-1.21V121.53z"/>
			<path d="M900.11,123.37c0-0.61,0-1.25-0.01-1.84h1.32c0.02,0.21,0.05,0.71,0.05,1.05c0.33-0.62,0.95-1.22,2.06-1.22
				c1.01,0,1.68,0.52,1.95,1.24c0.39-0.66,1.05-1.24,2.26-1.24c1.17,0,2.25,0.7,2.25,2.61v4.69h-1.35v-4.52
				c0-0.79-0.29-1.62-1.34-1.62c-1.1,0-1.57,0.81-1.57,2.04v4.09h-1.35v-4.47c0-0.88-0.24-1.66-1.31-1.66c-1.08,0-1.6,0.84-1.6,2.17
				v3.95h-1.36V123.37z"/>
			<path d="M912.92,125.36c0.01,1.34,0.68,2.34,1.85,2.34c1.07,0,1.41-0.53,1.63-1.04h1.38c-0.28,0.91-1.04,2.17-3.05,2.17
				c-2.26,0-3.2-1.81-3.2-3.65c0-2.14,1.08-3.82,3.28-3.82c2.33,0,3.1,1.83,3.1,3.4c0,0.22,0,0.4-0.02,0.59H912.92z M916.51,124.43
				c-0.01-1.11-0.55-2-1.72-2c-1.19,0-1.71,0.83-1.83,2H916.51z"/>
			<path d="M925.48,118.39v8.27c0,0.67,0,1.32,0.01,2h-1.32c-0.03-0.19-0.06-0.71-0.07-0.96c-0.35,0.71-1.05,1.13-2.2,1.13
				c-1.83,0-2.96-1.48-2.96-3.66c0-2.2,1.22-3.81,3.2-3.81c1.22,0,1.78,0.48,1.96,0.87v-3.84H925.48z M920.37,125.13
				c0,1.66,0.77,2.55,1.86,2.55c1.61,0,1.93-1.21,1.93-2.67c0-1.51-0.3-2.5-1.84-2.5C921.1,122.51,920.37,123.48,920.37,125.13z"/>
			<path d="M927.51,118.39h1.38v1.58h-1.38V118.39z M927.51,121.53h1.38v7.13h-1.38V121.53z"/>
			<path d="M936.75,126.59c0,0.69,0.01,1.61,0.01,2.08h-1.34c-0.03-0.19-0.04-0.61-0.05-1.02c-0.36,0.78-1.04,1.19-2.12,1.19
				c-1.25,0-2.36-0.65-2.36-2.62v-4.68h1.37v4.39c0,0.91,0.28,1.73,1.4,1.73c1.23,0,1.71-0.68,1.71-2.39v-3.73h1.38V126.59z"/>
			<path d="M938.79,123.37c0-0.61,0-1.25-0.01-1.84h1.32c0.02,0.21,0.05,0.71,0.05,1.05c0.33-0.62,0.95-1.22,2.06-1.22
				c1.01,0,1.68,0.52,1.95,1.24c0.39-0.66,1.05-1.24,2.26-1.24c1.17,0,2.25,0.7,2.25,2.61v4.69h-1.35v-4.52
				c0-0.79-0.29-1.62-1.34-1.62c-1.1,0-1.57,0.81-1.57,2.04v4.09h-1.35v-4.47c0-0.88-0.24-1.66-1.31-1.66c-1.08,0-1.6,0.84-1.6,2.17
				v3.95h-1.36V123.37z"/>
			<path d="M954.22,118.39h1.38v1.58h-1.38V118.39z M954.22,121.53h1.38v7.13h-1.38V121.53z"/>
			<path d="M956.76,121.53h1.21v-2.07h1.38v2.07h1.54v1.1h-1.54v4.05c0,0.66,0.17,0.99,0.8,0.99c0.16,0,0.4-0.01,0.59-0.05v1.01
				c-0.32,0.12-0.77,0.13-1.12,0.13c-1.16,0-1.65-0.61-1.65-1.8v-4.33h-1.21V121.53z"/>
			<path d="M967.64,127.05c0,0.65,0.06,1.41,0.1,1.61h-1.32c-0.06-0.16-0.1-0.5-0.11-0.89c-0.25,0.46-0.8,1.06-2.16,1.06
				c-1.69,0-2.41-1.1-2.41-2.19c0-1.6,1.26-2.33,3.37-2.33c0.47,0,0.92,0,1.18,0v-0.57c0-0.6-0.2-1.32-1.45-1.32
				c-1.12,0-1.32,0.55-1.44,1.09h-1.32c0.1-1.04,0.74-2.15,2.81-2.15c1.78,0.01,2.75,0.72,2.75,2.36V127.05z M966.3,125.23
				c-0.21,0-0.73,0-1.09,0c-1.38,0-2.08,0.39-2.08,1.33c0,0.7,0.47,1.22,1.32,1.22c1.63,0,1.84-1.1,1.84-2.33V125.23z"/>
			<path d="M969.69,128.67v-10.27h1.38v10.27H969.69z"/>
			<path d="M973.1,118.39h1.38v1.58h-1.38V118.39z M973.1,121.53h1.38v7.13h-1.38V121.53z"/>
			<path d="M982.25,126.46c-0.29,1.22-1.12,2.37-3,2.37c-2.01,0-3.21-1.44-3.21-3.69c0-2.03,1.17-3.77,3.3-3.77
				c2.12,0,2.83,1.52,2.91,2.41h-1.36c-0.17-0.7-0.6-1.28-1.58-1.28c-1.19,0-1.87,1.03-1.87,2.6c0,1.6,0.66,2.62,1.83,2.62
				c0.85,0,1.34-0.46,1.61-1.25H982.25z"/>
			<path d="M990.53,121.67c0.14-1.13,0.95-2.39,2.98-2.39c1.96,0,2.84,1.17,2.84,2.41c0,1.12-0.66,1.69-1.21,1.9v0.03
				c0.78,0.26,1.6,0.92,1.6,2.31c0,1.44-0.89,2.9-3.25,2.9c-2.18,0-3.07-1.36-3.2-2.58h1.36c0.17,0.78,0.76,1.47,1.9,1.47
				c1.25,0,1.78-0.82,1.78-1.78c0-1.15-0.69-1.7-1.91-1.7h-0.69v-1.11h0.59c1.15,0,1.65-0.44,1.65-1.37c0-0.79-0.52-1.34-1.5-1.34
				c-1.07,0-1.45,0.58-1.61,1.26H990.53z"/>
			<path d="M1004.04,120.62h-3.82c-0.08,0.69-0.29,1.99-0.38,2.46c0.38-0.4,0.97-0.69,1.88-0.69c1.71,0,2.79,1.2,2.79,3.06
				c0,1.79-0.95,3.38-3.23,3.38c-1.68,0-2.9-0.92-3.13-2.5h1.39c0.21,0.8,0.78,1.38,1.78,1.38c1.2,0,1.78-0.86,1.78-2.15
				c0-1.15-0.47-2.01-1.71-2.01c-1.07,0-1.5,0.45-1.81,1.15l-1.27-0.22c0.27-1.2,0.63-3.85,0.77-5.03h5.15L1004.04,120.62z"/>
			<path d="M1011.02,127.83v3.62h-1.37v-8.18c0-0.58,0-1.18-0.01-1.74h1.34c0.03,0.23,0.05,0.66,0.05,1.08
				c0.37-0.68,1.08-1.24,2.28-1.24c1.64,0,2.85,1.37,2.85,3.55c0,2.54-1.38,3.92-3.1,3.92
				C1011.92,128.83,1011.34,128.37,1011.02,127.83z M1014.74,124.97c0-1.47-0.66-2.45-1.82-2.45c-1.41,0-1.96,0.89-1.96,2.57
				c0,1.62,0.46,2.6,1.86,2.6C1014.08,127.69,1014.74,126.67,1014.74,124.97z"/>
			<path d="M1016.83,121.53h1.21v-2.07h1.38v2.07h1.54v1.1h-1.54v4.05c0,0.66,0.17,0.99,0.8,0.99c0.16,0,0.4-0.01,0.59-0.05v1.01
				c-0.32,0.12-0.77,0.13-1.12,0.13c-1.16,0-1.65-0.61-1.65-1.8v-4.33h-1.21V121.53z"/>
		</g>
	</g>
	<g class="st6">
		<g>
			<g>
				<path class="st1" d="M633.16,124.56h-6.82l-1.08,5.14h7.79l-0.63,1.74h-9.57l3.12-14.72h9.22l-0.36,1.74h-7.17l-0.94,4.37h6.82
					L633.16,124.56z"/>
				<path class="st1" d="M643.34,131.44l-2.66-5.93h-0.02l-4.88,5.93h-2.38l6.4-7.57l-3.27-7.15h2.21l2.51,5.63h0.02l4.78-5.63h2.29
					l-6.22,7.2l3.44,7.52H643.34z"/>
				<path class="st1" d="M650.31,116.72h4.78c2.96,0,4.56,1.67,4.56,3.96c0,3.23-2.39,4.8-5.75,4.8h-3.41l-1.25,5.97h-2.04
					L650.31,116.72z M650.85,123.77h3.01c2.23,0,3.62-0.87,3.62-2.97c0-1.64-1.08-2.37-2.88-2.37h-2.61L650.85,123.77z"/>
				<path class="st1" d="M674.2,122.6c0,4.34-2.43,9.05-7.86,9.05c-3.68,0-5.61-2.49-5.61-5.93c0-4.34,2.6-9.22,7.79-9.22
					C672.26,116.5,674.2,118.96,674.2,122.6z M662.87,125.65c0,2.45,1.17,4.29,3.74,4.29c3.74,0,5.46-3.89,5.46-7.39
					c0-2.58-1.19-4.35-3.69-4.35C664.65,118.21,662.87,122.27,662.87,125.65z"/>
				<path class="st1" d="M678.96,124.96l-1.36,6.48h-2.05l3.12-14.72h5.08c2.75,0,4.23,1.42,4.23,3.62c0,2.16-1.28,3.46-3.19,3.9
					c0.79,0.31,1.96,1.15,1.44,3.65c-0.36,1.68-0.63,2.92-0.56,3.55h-1.95c-0.07-0.64,0.08-1.74,0.48-3.5
					c0.42-2-0.12-2.98-2.24-2.98H678.96z M679.33,123.25h2.83c2.26,0,3.7-0.77,3.7-2.7c0-1.43-0.88-2.13-2.54-2.13h-2.97
					L679.33,123.25z"/>
				<path class="st1" d="M694.23,118.45h-4.52l0.38-1.74h11.11l-0.38,1.74h-4.53l-2.73,12.98h-2.06L694.23,118.45z"/>
				<path class="st1" d="M705.28,131.44l0.66-3.16h2.04l-0.66,3.16H705.28z M706.88,123.84l0.68-3.15h2.04l-0.68,3.15H706.88z"/>
			</g>
		</g>
	</g>
</g>
<g>
	<g class="st0">
		<path class="st6" d="M654.52,119.45v-0.22c0-2.75,1.24-4.99,4.66-7.48c2.23-1.63,2.9-2.19,2.9-3.57c0-1.37-0.66-2.14-1.99-2.14
			c-1.55,0-2.11,0.95-2.32,2.32h-3.32c0.23-2.72,2.01-5,5.64-5c4.06,0,5.45,2.42,5.45,4.78c0,2.3-0.99,3.41-3.9,5.45
			c-1.95,1.37-2.73,2.27-3,2.98h7.48l-0.43,2.87H654.52z"/>
		<path class="st6" d="M672.09,105.83h-5.03v-2.93h13.62v2.93h-5.01v13.62h-3.58V105.83z"/>
		<path class="st6" d="M694.29,112.31h-7.91v4.2h8.73l-0.42,2.93H682.9V102.9h11.73v2.93h-8.26v3.55h7.91V112.31z"/>
		<path class="st6" d="M703.32,111.13v-4h3.58v4H703.32z M703.32,119.45v-4.01h3.58v4.01H703.32z"/>
		<path class="st6" d="M719.73,105.83h-5.03v-2.93h13.62v2.93h-5.01v13.62h-3.58V105.83z"/>
		<path class="st6" d="M741.93,112.31h-7.91v4.2h8.73l-0.42,2.93h-11.78V102.9h11.73v2.93h-8.26v3.55h7.91V112.31z"/>
		<path class="st6" d="M748.47,115.62l-1.29,3.82h-3.52l5.62-16.55h4.49l5.86,16.55h-3.76l-1.36-3.82H748.47z M753.75,112.69
			c-1.17-3.49-1.92-5.72-2.32-7.21h-0.02c-0.41,1.63-1.24,4.23-2.18,7.21H753.75z"/>
		<path class="st6" d="M775.75,113.24c0-2.82,0.04-5.99,0.12-7.86h-0.11c-0.78,3.38-2.43,8.89-4.02,14.07h-3.05
			c-1.21-4.53-2.92-10.81-3.64-14.11h-0.11c0.14,1.94,0.21,5.35,0.21,8.18v5.93h-3.26V102.9h5.33c1.29,4.32,2.74,9.75,3.23,12.21
			h0.03c0.4-2.17,2.22-7.97,3.6-12.21h5.13v16.55h-3.45V113.24z"/>
		<path class="st6" d="M792.26,105.83h-5.03v-2.93h13.62v2.93h-5.01v13.62h-3.58V105.83z"/>
		<path class="st6" d="M817.11,114.34c-0.67,3.09-2.99,5.34-7.14,5.34c-5.25,0-7.73-3.71-7.73-8.42c0-4.54,2.56-8.6,7.9-8.6
			c4.41,0,6.54,2.59,6.95,5.35h-3.58c-0.35-1.28-1.23-2.55-3.48-2.55c-2.95,0-4.09,2.65-4.09,5.67c0,2.8,0.99,5.75,4.19,5.75
			c2.33,0,3.07-1.56,3.38-2.53H817.11z"/>
		<path class="st6" d="M820.16,102.9h3.58v6.45h6.66v-6.45h3.58v16.55h-3.58v-7.16h-6.66v7.16h-3.58V102.9z"/>
		<path class="st6" d="M841.02,115.62l-1.29,3.82h-3.52l5.62-16.55h4.49l5.86,16.55h-3.76l-1.36-3.82H841.02z M846.29,112.69
			c-1.17-3.49-1.92-5.72-2.32-7.21h-0.02c-0.41,1.63-1.24,4.23-2.18,7.21H846.29z"/>
		<path class="st6" d="M854.43,102.9h6.56c4.82,0,7.97,3.17,7.97,8.07c0,4.83-3.06,8.48-8.12,8.48h-6.41V102.9z M858,116.56h2.68
			c3.17,0,4.58-2.36,4.58-5.58c0-2.7-1.31-5.18-4.55-5.18H858V116.56z"/>
		<path class="st6" d="M889.28,112.31h-7.91v4.2h8.73l-0.42,2.93H877.9V102.9h11.73v2.93h-8.26v3.55h7.91V112.31z"/>
		<path class="st6" d="M901.54,119.45l-3.54-5.83h-0.02l-3.62,5.83h-3.86l5.5-8.33l-5.35-8.21h4.15l3.34,5.49h0.02l3.46-5.49h3.79
			l-5.33,7.89l5.58,8.66H901.54z"/>
		<path class="st6" d="M907.39,102.9h6.85c3.52,0,5.9,1.98,5.9,5.12c0,3.59-2.72,5.24-5.99,5.24h-3.18v6.18h-3.58V102.9z
			 M910.97,110.42h2.73c1.66,0,2.83-0.64,2.83-2.33c0-1.71-1.23-2.34-2.75-2.34h-2.81V110.42z"/>
		<path class="st6" d="M938.3,111.12c0,4.61-2.77,8.57-8.14,8.57c-5.19,0-7.91-3.77-7.91-8.51c0-4.82,3-8.51,8.14-8.51
			C935.23,102.66,938.3,106.05,938.3,111.12z M925.94,111.1c0,3.23,1.42,5.67,4.35,5.67c3.18,0,4.31-2.67,4.31-5.61
			c0-3.13-1.28-5.59-4.37-5.59C927.25,105.57,925.94,107.88,925.94,111.1z"/>
		<path class="st6" d="M944.92,112.82v6.62h-3.5V102.9h7.27c3.61,0,5.55,1.99,5.55,4.54c0,2.22-1.21,3.42-2.41,3.92
			c0.82,0.3,2.06,1.16,2.06,4.12v0.82c0,1.11,0.01,2.38,0.24,3.15h-3.39c-0.29-0.72-0.35-1.96-0.35-3.72v-0.24
			c0-1.81-0.46-2.67-3.12-2.67H944.92z M944.92,109.97h3c1.96,0,2.71-0.74,2.71-2.13c0-1.35-0.88-2.1-2.63-2.1h-3.08V109.97z"/>
		<path class="st6" d="M960.62,105.83h-5.03v-2.93h13.62v2.93h-5.01v13.62h-3.58V105.83z"/>
		<path class="st6" d="M658.59,144.42l-1.29,3.82h-3.52l5.62-16.55h4.49l5.86,16.55H666l-1.36-3.82H658.59z M663.87,141.49
			c-1.17-3.49-1.92-5.72-2.32-7.21h-0.02c-0.41,1.63-1.24,4.23-2.18,7.21H663.87z"/>
		<path class="st6" d="M682.33,144.23c-0.43,2.07-1.88,4.3-5.59,4.3c-3.87,0-5.85-2.68-5.85-6.41c0-3.67,2.24-6.59,6.02-6.59
			c4.19,0,5.35,3.01,5.42,4.41h-3.36c-0.21-1.01-0.79-1.72-2.13-1.72c-1.57,0-2.46,1.38-2.46,3.79c0,2.65,0.94,3.85,2.45,3.85
			c1.18,0,1.81-0.7,2.12-1.63H682.33z"/>
		<path class="st6" d="M695.46,144.64c0,1.2,0,2.5,0.02,3.61h-3.37c-0.05-0.33-0.07-1-0.09-1.43c-0.74,1.25-1.83,1.72-3.42,1.72
			c-2.53,0-4.15-1.54-4.15-4.62v-8.09h3.44v7.4c0,1.37,0.43,2.51,1.91,2.51c1.57,0,2.22-0.84,2.22-3.3v-6.61h3.44V144.64z"/>
		<path class="st6" d="M698.55,139.02c0-1.07,0-2.14-0.02-3.2h3.29c0.04,0.3,0.11,1,0.13,1.48c0.63-0.93,1.63-1.77,3.45-1.77
			c1.79,0,2.77,0.92,3.21,1.89c0.73-1.02,1.8-1.89,3.83-1.89c2.17,0,3.94,1.33,3.94,4.56v8.15h-3.36v-7.73
			c0-1.12-0.41-2.22-1.81-2.22c-1.46,0-2.03,0.94-2.03,2.85v7.1h-3.37v-7.6c0-1.29-0.32-2.33-1.79-2.33c-1.4,0-2.06,0.86-2.06,2.99
			v6.94h-3.4V139.02z"/>
		<path class="st6" d="M719.46,130.73h3.44v3.07h-3.44V130.73z M719.46,135.82h3.44v12.42h-3.44V135.82z"/>
		<path class="st6" d="M726.01,138.95c0-1.06,0-2.21-0.02-3.13h3.33c0.07,0.32,0.11,1.18,0.13,1.58c0.42-0.78,1.43-1.87,3.6-1.87
			c2.5,0,4.12,1.69,4.12,4.81v7.9h-3.44v-7.52c0-1.4-0.46-2.41-1.98-2.41c-1.46,0-2.3,0.81-2.3,3.01v6.92h-3.44V138.95z"/>
		<path class="st6" d="M748.33,135.82c1.18,4.21,2.17,7.89,2.41,9.38h0.02c0.35-2.05,1.57-5.8,2.65-9.38h3.43l-4.39,12.42h-3.62
			l-4.21-12.42H748.33z"/>
		<path class="st6" d="M768.86,145.04c0,1.18,0.1,2.91,0.17,3.21h-3.29c-0.1-0.25-0.17-0.9-0.17-1.21c-0.45,0.7-1.29,1.5-3.49,1.5
			c-3,0-4.26-1.97-4.26-3.9c0-2.83,2.27-4.14,5.92-4.14c0.61,0,1.36,0,1.77,0v-0.76c0-0.88-0.32-1.75-1.91-1.75
			c-1.45,0-1.77,0.62-1.93,1.52h-3.27c0.19-2.21,1.55-3.99,5.33-3.97c3.33,0.02,5.14,1.32,5.14,4.28V145.04z M765.5,142.59
			c-0.29,0-0.95,0-1.4,0c-2.07,0-2.84,0.63-2.84,1.83c0,0.9,0.55,1.66,1.79,1.66c2.19,0,2.45-1.52,2.45-3.16V142.59z"/>
		<path class="st6" d="M771.97,139.19c0-1.23,0-2.33-0.02-3.37h3.37c0.04,0.28,0.09,1.51,0.09,2.18c0.55-1.42,1.87-2.46,3.99-2.47
			v3.28c-2.5-0.06-3.99,0.61-3.99,4.01v5.42h-3.44V139.19z"/>
		<path class="st6" d="M781.42,130.73h3.44v3.07h-3.44V130.73z M781.42,135.82h3.44v12.42h-3.44V135.82z"/>
		<path class="st6" d="M798.25,145.04c0,1.18,0.1,2.91,0.17,3.21h-3.29c-0.1-0.25-0.17-0.9-0.17-1.21c-0.45,0.7-1.29,1.5-3.49,1.5
			c-3,0-4.26-1.97-4.26-3.9c0-2.83,2.27-4.14,5.92-4.14c0.61,0,1.36,0,1.77,0v-0.76c0-0.88-0.32-1.75-1.91-1.75
			c-1.45,0-1.77,0.62-1.93,1.52h-3.27c0.19-2.21,1.55-3.99,5.33-3.97c3.33,0.02,5.14,1.32,5.14,4.28V145.04z M794.9,142.59
			c-0.29,0-0.95,0-1.4,0c-2.07,0-2.84,0.63-2.84,1.83c0,0.9,0.55,1.66,1.79,1.66c2.19,0,2.45-1.52,2.45-3.16V142.59z"/>
		<path class="st6" d="M801.37,130.73h3.44v6.42c0.51-0.8,1.54-1.61,3.55-1.61c3.38,0,5.07,2.79,5.07,6.28
			c0,3.56-1.83,6.72-5.4,6.72c-1.85,0-2.66-0.56-3.26-1.47c0,0.41-0.07,0.86-0.13,1.18h-3.29c0.02-1.35,0.02-2.71,0.02-4.06V130.73z
			 M809.94,141.88c0-2.07-0.77-3.59-2.63-3.59c-1.96,0-2.66,1.28-2.66,3.81c0,2.09,0.62,3.7,2.62,3.7
			C809.02,145.8,809.94,144.23,809.94,141.88z"/>
		<path class="st6" d="M815.79,148.25v-17.52h3.44v17.52H815.79z"/>
		<path class="st6" d="M825.06,142.77c0,1.55,0.78,3.07,2.49,3.07c1.43,0,1.84-0.58,2.17-1.33h3.44c-0.44,1.52-1.8,4.02-5.7,4.02
			c-4.09,0-5.87-3.06-5.87-6.32c0-3.9,2-6.68,5.99-6.68c4.27,0,5.72,3.09,5.72,6.19c0,0.42,0,0.69-0.04,1.05H825.06z M829.85,140.66
			c-0.02-1.45-0.6-2.66-2.28-2.66c-1.65,0-2.31,1.14-2.45,2.66H829.85z"/>
		<path class="st6" d="M852.2,144.23c-0.43,2.07-1.88,4.3-5.59,4.3c-3.87,0-5.85-2.68-5.85-6.41c0-3.67,2.24-6.59,6.02-6.59
			c4.19,0,5.35,3.01,5.42,4.41h-3.36c-0.21-1.01-0.79-1.72-2.13-1.72c-1.57,0-2.46,1.38-2.46,3.79c0,2.65,0.94,3.85,2.45,3.85
			c1.18,0,1.81-0.7,2.12-1.63H852.2z"/>
		<path class="st6" d="M865.94,142.01c0,3.76-2.25,6.52-6.18,6.52c-3.85,0-6.1-2.75-6.1-6.46c0-3.83,2.32-6.54,6.26-6.54
			C863.58,135.53,865.94,138.12,865.94,142.01z M857.15,142.03c0,2.39,1.03,3.81,2.69,3.81c1.68,0,2.62-1.42,2.62-3.79
			c0-2.6-0.95-3.83-2.67-3.83C858.19,138.23,857.15,139.41,857.15,142.03z"/>
		<path class="st6" d="M868.32,138.95c0-1.06,0-2.21-0.02-3.13h3.33c0.07,0.32,0.11,1.18,0.13,1.58c0.42-0.78,1.43-1.87,3.6-1.87
			c2.5,0,4.12,1.69,4.12,4.81v7.9h-3.44v-7.52c0-1.4-0.46-2.41-1.98-2.41c-1.46,0-2.3,0.81-2.3,3.01v6.92h-3.44V138.95z"/>
		<path class="st6" d="M893.29,144.23c-0.43,2.07-1.88,4.3-5.59,4.3c-3.87,0-5.85-2.68-5.85-6.41c0-3.67,2.24-6.59,6.02-6.59
			c4.19,0,5.35,3.01,5.42,4.41h-3.36c-0.21-1.01-0.79-1.72-2.13-1.72c-1.57,0-2.46,1.38-2.46,3.79c0,2.65,0.94,3.85,2.45,3.85
			c1.18,0,1.81-0.7,2.12-1.63H893.29z"/>
		<path class="st6" d="M898.21,142.77c0,1.55,0.78,3.07,2.49,3.07c1.43,0,1.84-0.58,2.17-1.33h3.44c-0.44,1.52-1.8,4.02-5.7,4.02
			c-4.09,0-5.87-3.06-5.87-6.32c0-3.9,2-6.68,5.99-6.68c4.27,0,5.72,3.09,5.72,6.19c0,0.42,0,0.69-0.04,1.05H898.21z M903,140.66
			c-0.02-1.45-0.6-2.66-2.28-2.66c-1.65,0-2.31,1.14-2.45,2.66H903z"/>
		<path class="st6" d="M912.21,147.15V153h-3.42v-14.19c0-1.01,0-2-0.02-3h3.33c0.05,0.33,0.11,1.09,0.11,1.55
			c0.53-0.91,1.64-1.84,3.61-1.84c2.79,0,4.95,2.33,4.95,6.19c0,4.38-2.41,6.81-5.42,6.81C913.6,148.53,912.68,147.87,912.21,147.15
			z M917.28,141.85c0-2.28-0.92-3.56-2.56-3.56c-1.95,0-2.65,1.25-2.65,3.76c0,2.37,0.64,3.75,2.5,3.75
			C916.39,145.8,917.28,144.39,917.28,141.85z"/>
		<path class="st6" d="M921.93,135.82h1.92v-3.36h3.44v3.36h2.43v2.59h-2.43v6.13c0,0.94,0.29,1.31,1.31,1.31
			c0.19,0,0.53,0,0.78-0.04v2.37c-0.68,0.23-1.62,0.24-2.31,0.24c-2.42,0-3.22-1.3-3.22-3.47v-6.54h-1.92V135.82z"/>
		<path class="st6" d="M937.66,130.73h3.44v6.42c0.51-0.8,1.54-1.61,3.55-1.61c3.38,0,5.07,2.79,5.07,6.28
			c0,3.56-1.83,6.72-5.4,6.72c-1.85,0-2.66-0.56-3.26-1.47c0,0.41-0.07,0.86-0.13,1.18h-3.29c0.02-1.35,0.02-2.71,0.02-4.06V130.73z
			 M946.23,141.88c0-2.07-0.77-3.59-2.63-3.59c-1.96,0-2.66,1.28-2.66,3.81c0,2.09,0.62,3.7,2.62,3.7
			C945.32,145.8,946.23,144.23,946.23,141.88z"/>
		<path class="st6" d="M963.64,142.01c0,3.76-2.25,6.52-6.18,6.52c-3.85,0-6.1-2.75-6.1-6.46c0-3.83,2.32-6.54,6.26-6.54
			C961.28,135.53,963.64,138.12,963.64,142.01z M954.85,142.03c0,2.39,1.03,3.81,2.69,3.81c1.68,0,2.62-1.42,2.62-3.79
			c0-2.6-0.95-3.83-2.67-3.83C955.89,138.23,954.85,139.41,954.85,142.03z"/>
		<path class="st6" d="M966,148.25v-17.52h3.44v17.52H966z"/>
		<path class="st6" d="M983.93,130.73v14.11c0,1.13,0,2.28,0.02,3.41h-3.31c-0.07-0.37-0.14-1.01-0.16-1.3
			c-0.6,0.98-1.67,1.59-3.53,1.59c-3.14,0-5.14-2.52-5.14-6.4c0-3.82,2.12-6.6,5.64-6.6c1.79,0,2.75,0.63,3.02,1.19v-6H983.93z
			 M975.36,142.05c0,2.42,0.94,3.73,2.63,3.73c2.37,0,2.64-1.97,2.64-3.76c0-2.12-0.3-3.73-2.55-3.73
			C976.27,138.29,975.36,139.7,975.36,142.05z"/>
		<path class="st6" d="M999.17,148.25v-3.55h-7.14v-2.99l6.59-9.25h3.74v9.46h1.9l-0.32,2.78h-1.59v3.55H999.17z M999.17,139.11
			c0-1.71,0-2.67,0.07-3.66c-0.63,1.32-2.68,4.33-4.17,6.47h4.1V139.11z"/>
		<path class="st6" d="M1005.72,143.7c0-2.02,1.41-3.25,2.58-3.78c-1.21-0.75-1.95-1.7-1.95-3.3c0-2.68,1.96-4.46,5.52-4.46
			c3.25,0,5.39,1.69,5.39,4.41c0,1.82-0.93,2.71-2.01,3.17c1.14,0.42,2.58,1.75,2.58,3.84c0,3.26-2.6,4.94-6.2,4.94
			C1008.39,148.53,1005.72,146.83,1005.72,143.7z M1014.39,143.55c0-1.56-1.08-2.29-2.62-2.29c-1.72,0-2.6,0.93-2.6,2.27
			c0,1.4,1.05,2.33,2.66,2.33C1013.31,145.86,1014.39,145.16,1014.39,143.55z M1009.61,136.74c0,1.07,0.76,1.79,2.21,1.79
			c1.41,0,2.17-0.54,2.17-1.77c0-1.2-0.79-1.94-2.2-1.94C1010.35,134.81,1009.61,135.49,1009.61,136.74z"/>
		<path class="st6" d="M1023.73,147.15V153h-3.42v-14.19c0-1.01,0-2-0.02-3h3.33c0.05,0.33,0.11,1.09,0.11,1.55
			c0.53-0.91,1.64-1.84,3.61-1.84c2.79,0,4.95,2.33,4.95,6.19c0,4.38-2.41,6.81-5.42,6.81
			C1025.12,148.53,1024.21,147.87,1023.73,147.15z M1028.8,141.85c0-2.28-0.92-3.56-2.56-3.56c-1.95,0-2.65,1.25-2.65,3.76
			c0,2.37,0.64,3.75,2.5,3.75C1027.92,145.8,1028.8,144.39,1028.8,141.85z"/>
		<path class="st6" d="M1033.46,135.82h1.92v-3.36h3.44v3.36h2.43v2.59h-2.43v6.13c0,0.94,0.29,1.31,1.31,1.31
			c0.19,0,0.53,0,0.78-0.04v2.37c-0.68,0.23-1.62,0.24-2.31,0.24c-2.42,0-3.22-1.3-3.22-3.47v-6.54h-1.92V135.82z"/>
	</g>
</g>
<g class="st0">
	<g class="st6">
		<g>
			<path d="M490.93,552.72v-0.44c0-5.5,2.47-9.97,9.31-14.96c4.46-3.26,5.81-4.38,5.81-7.14c0-2.74-1.33-4.28-3.99-4.28
				c-3.09,0-4.21,1.9-4.65,4.64h-6.63c0.46-5.45,4.02-9.99,11.28-9.99c8.12,0,10.9,4.83,10.9,9.57c0,4.6-1.98,6.82-7.79,10.91
				c-3.9,2.74-5.46,4.53-6,5.96h14.96l-0.85,5.73H490.93z"/>
			<path d="M526.07,525.49h-10.06v-5.87h27.24v5.87h-10.02v27.23h-7.16V525.49z"/>
			<path d="M570.46,538.45h-15.83v8.41h17.46l-0.85,5.87h-23.56v-33.1h23.47v5.87h-16.52v7.09h15.83V538.45z"/>
		</g>
	</g>
	<g class="st6">
		<path class="st1" d="M472.8,425.7v-6.13c0,0-18.38,14.81-14.43,28.47c0,0,18.51,35.74,114-18.38l18.64-14.68l1.91,7.79
			c0,0,10.34-8.3,13.4-26.17l-23.36,9.83l4.47,4.34c0,0-31.4,22.98-73.28,29.87C514.16,440.64,460.03,453.4,472.8,425.7z"/>
		<path class="st2" d="M554.93,418.51c0,0-36.6,21.28-73.36,17.19c0,0-6.64-23.66,9.19-43.23c0,0,20.43-24.51,53.45-17.87
			c0,0,10.86,1.01,26.21,15.83c0,0,6.13-11.4-13.11-14.47c0,0,17.02-2.89,25.02,7.15c0,0,8.85,25.7-71.32,42.21
			C511.01,425.32,528.71,427.53,554.93,418.51z"/>
		<path class="st3" d="M486.67,459.62c0,0-12.09,23.06,22.81,16.76c0,0,23.83,15.32,53.28-5.11c0,0,23.83-14.98,20.6-43.91
			c0,0-34.72,32.51-76.43,38.64c0,0,21.45,1.7,40.85-7.32c0,0-11.4,9.36-33.19,10.38c0,0-19.15,5.02-22.47-7.49l0.09-2.14
			L486.67,459.62z"/>
	</g>
</g>
</svg>
