<svg width="79" height="79" viewBox="0 0 79 79" fill="none" xmlns="http://www.w3.org/2000/svg">
<path d="M67.15 31.6H71.1V75.05H7.90002V31.6H11.85V23.7C11.85 12.798 20.698 3.95 31.6 3.95C34.4045 3.95 37.0905 4.5425 39.5 5.609C41.9875 4.5069 44.6794 3.94161 47.4 3.95C58.302 3.95 67.15 12.798 67.15 23.7V31.6ZM19.75 23.7V31.6H27.65V23.7C27.65 19.2365 29.1905 15.168 31.679 11.85H31.6C25.0825 11.85 19.75 17.1825 19.75 23.7ZM59.25 31.6V23.7C59.25 17.1825 53.9175 11.85 47.4 11.85H47.321C49.9184 15.256 51.333 19.4167 51.35 23.7V31.6H59.25ZM39.5 14.931C37.0905 17.1035 35.55 20.224 35.55 23.7V31.6H43.45V23.7C43.45 20.224 41.9095 17.1035 39.5 14.931Z" fill="white"/>
</svg>
