<svg xmlns="http://www.w3.org/2000/svg" xmlns:xlink="http://www.w3.org/1999/xlink" width="500" zoomAndPan="magnify" viewBox="0 0 375 374.999991" height="500" preserveAspectRatio="xMidYMid meet" version="1.0"><defs><clipPath id="0f3b4b0c47"><path d="M 0 39.375 L 375 39.375 L 375 337.875 L 0 337.875 Z M 0 39.375 " clip-rule="nonzero"/></clipPath></defs><g clip-path="url(#0f3b4b0c47)"><path fill="#ffffff" d="M 372.664062 277.8125 L 350.109375 277.8125 L 350.109375 264.769531 L 352.941406 264.769531 C 365.09375 264.769531 374.972656 254.890625 374.972656 242.738281 L 374.972656 100.542969 C 374.972656 88.390625 365.09375 78.511719 352.941406 78.511719 L 350.054688 78.511719 L 350.054688 68.035156 C 350.054688 65.445312 347.945312 63.339844 345.355469 63.339844 L 297.246094 63.339844 C 294.65625 63.339844 292.550781 65.445312 292.550781 68.035156 L 292.550781 78.511719 L 289.660156 78.511719 C 277.511719 78.511719 267.628906 88.390625 267.628906 100.542969 L 267.628906 242.738281 C 267.628906 254.890625 277.511719 264.769531 289.660156 264.769531 L 292.496094 264.769531 L 292.496094 277.804688 L 217.484375 277.804688 L 217.484375 264.769531 L 220.320312 264.769531 C 232.46875 264.769531 242.351562 254.890625 242.351562 242.738281 L 242.351562 100.542969 C 242.351562 88.390625 232.46875 78.511719 220.320312 78.511719 L 217.429688 78.511719 L 217.429688 68.035156 C 217.429688 65.445312 215.324219 63.339844 212.734375 63.339844 L 164.625 63.339844 C 162.035156 63.339844 159.929688 65.445312 159.929688 68.035156 L 159.929688 78.511719 L 157.039062 78.511719 C 144.886719 78.511719 135.007812 88.390625 135.007812 100.542969 L 135.007812 242.738281 C 135.007812 254.890625 144.886719 264.769531 157.039062 264.769531 L 159.875 264.769531 L 159.875 277.804688 L 106.042969 277.804688 L 106.042969 58.820312 C 106.042969 48.105469 97.320312 39.382812 86.609375 39.382812 C 75.898438 39.382812 67.179688 48.105469 67.179688 58.820312 L 67.179688 91.296875 L 46.285156 91.296875 C 44.625 91.296875 43.097656 92.164062 42.242188 93.589844 L 0.664062 163.496094 C 0.234375 164.222656 0.0078125 165.050781 0.0078125 165.898438 L 0.0078125 332.792969 C 0.0078125 335.386719 2.113281 337.492188 4.703125 337.492188 L 372.664062 337.492188 C 375.253906 337.492188 377.359375 335.386719 377.359375 332.792969 L 377.359375 282.507812 C 377.359375 279.910156 375.253906 277.8125 372.664062 277.8125 Z M 277.023438 137.964844 L 365.578125 111.511719 L 365.578125 130.316406 L 277.023438 156.769531 Z M 365.585938 140.125 L 365.585938 202.726562 L 277.03125 176.269531 L 277.03125 166.578125 Z M 277.023438 186.074219 L 365.578125 212.527344 L 365.578125 231.332031 L 277.023438 204.878906 Z M 301.953125 72.734375 L 340.667969 72.734375 L 340.667969 78.511719 L 301.953125 78.511719 Z M 289.667969 87.90625 L 352.941406 87.90625 C 359.910156 87.90625 365.578125 93.574219 365.578125 100.542969 L 365.578125 101.707031 L 277.023438 128.164062 L 277.023438 100.542969 C 277.023438 93.574219 282.699219 87.90625 289.667969 87.90625 Z M 277.023438 242.738281 L 277.023438 214.6875 L 365.578125 241.140625 L 365.578125 242.738281 C 365.578125 249.707031 359.910156 255.375 352.941406 255.375 L 289.667969 255.375 C 282.699219 255.375 277.023438 249.707031 277.023438 242.738281 Z M 301.898438 264.769531 L 340.722656 264.769531 L 340.722656 277.804688 L 301.898438 277.804688 Z M 144.402344 137.964844 L 232.957031 111.511719 L 232.957031 130.316406 L 144.402344 156.769531 Z M 232.964844 140.125 L 232.964844 202.726562 L 144.410156 176.269531 L 144.410156 166.578125 Z M 144.402344 186.074219 L 232.957031 212.527344 L 232.957031 231.332031 L 144.402344 204.878906 Z M 169.332031 72.734375 L 208.042969 72.734375 L 208.042969 78.511719 L 169.332031 78.511719 Z M 157.046875 87.90625 L 220.320312 87.90625 C 227.289062 87.90625 232.957031 93.574219 232.957031 100.542969 L 232.957031 101.707031 L 144.402344 128.164062 L 144.402344 100.542969 C 144.402344 93.574219 150.078125 87.90625 157.046875 87.90625 Z M 144.402344 242.738281 L 144.402344 214.6875 L 232.957031 241.140625 L 232.957031 242.738281 C 232.957031 249.707031 227.289062 255.375 220.320312 255.375 L 157.046875 255.375 C 150.078125 255.375 144.402344 249.707031 144.402344 242.738281 Z M 169.277344 264.769531 L 208.097656 264.769531 L 208.097656 277.804688 L 169.277344 277.804688 Z M 48.953125 100.691406 L 71.875 100.691406 C 74.46875 100.691406 76.574219 98.585938 76.574219 95.992188 L 76.574219 58.820312 C 76.574219 53.285156 81.074219 48.777344 86.609375 48.777344 C 92.144531 48.777344 96.648438 53.277344 96.648438 58.820312 L 96.648438 122.527344 L 35.972656 122.527344 Z M 30.382812 131.921875 L 96.65625 131.921875 L 96.65625 277.8125 L 9.402344 277.8125 L 9.402344 167.191406 Z M 367.964844 328.097656 L 9.402344 328.097656 L 9.402344 287.207031 L 367.964844 287.207031 Z M 56.53125 198.628906 C 70.230469 198.628906 81.378906 187.480469 81.378906 173.773438 C 81.378906 160.066406 70.230469 148.917969 56.53125 148.917969 C 42.832031 148.917969 31.683594 160.066406 31.683594 173.773438 C 31.675781 187.480469 42.824219 198.628906 56.53125 198.628906 Z M 56.53125 158.320312 C 65.058594 158.320312 71.984375 165.257812 71.984375 173.78125 C 71.984375 182.308594 65.050781 189.242188 56.53125 189.242188 C 48.015625 189.242188 41.078125 182.308594 41.078125 173.78125 C 41.078125 165.257812 48.003906 158.320312 56.53125 158.320312 Z M 56.53125 257.933594 C 70.230469 257.933594 81.378906 246.785156 81.378906 233.078125 C 81.378906 219.378906 70.230469 208.222656 56.53125 208.222656 C 42.832031 208.222656 31.683594 219.371094 31.683594 233.078125 C 31.675781 246.785156 42.824219 257.933594 56.53125 257.933594 Z M 56.53125 217.617188 C 65.058594 217.617188 71.984375 224.550781 71.984375 233.078125 C 71.984375 241.605469 65.050781 248.539062 56.53125 248.539062 C 48.015625 248.539062 41.078125 241.605469 41.078125 233.078125 C 41.078125 224.550781 48.003906 217.617188 56.53125 217.617188 Z M 56.53125 217.617188 " fill-opacity="1" fill-rule="nonzero"/></g></svg>